<svg xmlns="http://www.w3.org/2000/svg" xmlns:xlink="http://www.w3.org/1999/xlink" width="160" zoomAndPan="magnify" viewBox="0 0 120 30.000001" height="40" preserveAspectRatio="xMidYMid meet" version="1.0"><defs><clipPath id="d63e364270"><path d="M 1.933594 0 L 118.0625 0 L 118.0625 29.03125 L 1.933594 29.03125 Z M 1.933594 0 " clip-rule="nonzero"/></clipPath></defs><g clip-path="url(#d63e364270)"><path fill="#ffffff" d="M 1.933594 0 L 118.066406 0 L 118.066406 29.03125 L 1.933594 29.03125 Z M 1.933594 0 " fill-opacity="1" fill-rule="nonzero"/><path fill="#ffffff" d="M 1.933594 0 L 118.066406 0 L 118.066406 29.03125 L 1.933594 29.03125 Z M 1.933594 0 " fill-opacity="1" fill-rule="nonzero"/></g><path fill="#fcda55" d="M 24.644531 10.863281 L 26.066406 9.441406 C 26.484375 9.015625 26.90625 8.640625 27.179688 7.894531 C 27.773438 6.273438 26.992188 4.757812 26.070312 4.089844 C 25.015625 3.324219 23.664062 3.171875 22.484375 3.8125 C 22.347656 3.886719 22.183594 4.015625 22.058594 4.066406 C 21.769531 3.890625 21.5625 3.734375 21.195312 3.609375 C 20.089844 3.226562 18.933594 3.421875 18.074219 4.082031 C 16.910156 4.972656 16.433594 6.476562 16.957031 7.902344 C 17.226562 8.640625 17.652344 9.019531 18.082031 9.441406 L 19.488281 10.847656 C 20.976562 9.679688 23.222656 9.738281 24.640625 10.859375 Z M 24.644531 10.863281 " fill-opacity="1" fill-rule="evenodd"/><path fill="#009e9a" d="M 25.488281 16.859375 L 26.9375 18.3125 C 27.363281 18.730469 27.742188 19.152344 28.484375 19.425781 C 30.105469 20.019531 31.621094 19.238281 32.292969 18.316406 C 33.054688 17.265625 33.207031 15.910156 32.566406 14.730469 C 32.492188 14.59375 32.367188 14.425781 32.3125 14.304688 C 32.488281 14.019531 32.644531 13.808594 32.769531 13.441406 C 33.15625 12.332031 32.957031 11.179688 32.296875 10.320312 C 31.40625 9.15625 29.902344 8.679688 28.476562 9.203125 C 27.742188 9.472656 27.359375 9.898438 26.9375 10.328125 L 25.515625 11.746094 C 25.792969 12.117188 26 12.542969 26.144531 12.988281 C 26.445312 13.972656 26.371094 14.828125 26.140625 15.625 C 25.992188 16.074219 25.765625 16.488281 25.488281 16.859375 Z M 25.488281 16.859375 " fill-opacity="1" fill-rule="evenodd"/><path fill="#fcda55" d="M 19.515625 17.738281 L 18.066406 19.183594 C 17.648438 19.609375 17.226562 19.988281 16.953125 20.730469 C 16.359375 22.351562 17.140625 23.867188 18.066406 24.535156 C 19.117188 25.300781 20.46875 25.453125 21.648438 24.8125 C 21.789062 24.738281 21.953125 24.609375 22.074219 24.558594 C 22.363281 24.734375 22.570312 24.890625 22.9375 25.015625 C 24.046875 25.398438 25.199219 25.203125 26.0625 24.542969 C 27.222656 23.652344 27.703125 22.148438 27.175781 20.722656 C 26.90625 19.988281 26.480469 19.605469 26.050781 19.183594 L 24.605469 17.734375 C 24.234375 18.011719 23.816406 18.226562 23.371094 18.371094 C 22.476562 18.636719 21.613281 18.628906 20.765625 18.375 C 20.3125 18.230469 19.890625 18.015625 19.515625 17.738281 Z M 19.515625 17.738281 " fill-opacity="1" fill-rule="evenodd"/><path fill="#009e9a" d="M 18.609375 11.730469 L 17.195312 10.3125 C 16.773438 9.894531 16.394531 9.472656 15.648438 9.199219 C 14.027344 8.605469 12.511719 9.386719 11.84375 10.308594 C 11.078125 11.363281 10.925781 12.714844 11.566406 13.894531 C 11.644531 14.035156 11.769531 14.199219 11.820312 14.320312 C 11.644531 14.609375 11.492188 14.816406 11.363281 15.183594 C 10.980469 16.292969 11.175781 17.445312 11.835938 18.308594 C 12.726562 19.46875 14.234375 19.949219 15.660156 19.421875 C 16.394531 19.152344 16.773438 18.726562 17.195312 18.296875 L 18.628906 16.863281 C 17.535156 15.394531 17.429688 13.394531 18.609375 11.730469 Z M 18.609375 11.730469 " fill-opacity="1" fill-rule="evenodd"/><path fill="#fcda55" d="M 23.867188 11.617188 C 23.351562 11.273438 22.734375 11.070312 22.066406 11.070312 C 21.398438 11.070312 20.78125 11.273438 20.265625 11.621094 L 21.285156 12.625 C 21.523438 12.515625 21.789062 12.453125 22.066406 12.453125 C 22.347656 12.453125 22.609375 12.515625 22.847656 12.625 Z M 23.867188 11.617188 " fill-opacity="1" fill-rule="evenodd"/><path fill="#fcda55" d="M 23.867188 16.980469 C 23.351562 17.328125 22.734375 17.527344 22.066406 17.527344 C 21.398438 17.527344 20.78125 17.324219 20.265625 16.980469 L 21.285156 15.972656 C 21.523438 16.082031 21.789062 16.144531 22.066406 16.144531 C 22.347656 16.144531 22.609375 16.082031 22.847656 15.972656 Z M 23.867188 16.980469 " fill-opacity="1" fill-rule="evenodd"/><path fill="#009e9a" d="M 19.386719 12.496094 C 19.039062 13.011719 18.839844 13.632812 18.839844 14.300781 C 18.839844 14.964844 19.039062 15.585938 19.386719 16.101562 L 20.394531 15.078125 C 20.28125 14.84375 20.21875 14.578125 20.21875 14.296875 C 20.21875 14.019531 20.28125 13.753906 20.394531 13.515625 Z M 19.386719 12.496094 " fill-opacity="1" fill-rule="evenodd"/><path fill="#009e9a" d="M 24.746094 12.496094 C 25.09375 13.011719 25.296875 13.632812 25.296875 14.300781 C 25.296875 14.964844 25.09375 15.585938 24.746094 16.101562 L 23.738281 15.078125 C 23.851562 14.84375 23.910156 14.578125 23.910156 14.296875 C 23.910156 14.019531 23.851562 13.753906 23.738281 13.515625 Z M 24.746094 12.496094 " fill-opacity="1" fill-rule="evenodd"/><path fill="#009e9a" d="M 38.5625 13.316406 C 38.199219 13.316406 37.941406 13.261719 37.785156 13.15625 C 37.628906 13.046875 37.535156 12.910156 37.503906 12.738281 C 37.46875 12.566406 37.453125 12.378906 37.453125 12.183594 L 37.453125 5.832031 C 37.453125 5.648438 37.472656 5.476562 37.503906 5.308594 C 37.535156 5.140625 37.628906 5 37.785156 4.890625 C 37.941406 4.777344 38.207031 4.722656 38.585938 4.722656 C 38.839844 4.722656 39.027344 4.738281 39.144531 4.773438 C 39.265625 4.804688 39.351562 4.847656 39.40625 4.894531 C 39.457031 4.945312 39.511719 5 39.570312 5.066406 L 42.117188 8.339844 L 42.046875 8.339844 L 44.582031 5.078125 C 44.664062 4.988281 44.738281 4.917969 44.808594 4.871094 C 44.878906 4.820312 44.972656 4.785156 45.09375 4.757812 C 45.210938 4.734375 45.382812 4.722656 45.601562 4.722656 C 45.972656 4.722656 46.234375 4.777344 46.390625 4.886719 C 46.546875 5 46.640625 5.140625 46.671875 5.3125 C 46.707031 5.484375 46.722656 5.664062 46.722656 5.855469 L 46.722656 12.207031 C 46.722656 12.386719 46.707031 12.5625 46.671875 12.738281 C 46.640625 12.910156 46.546875 13.046875 46.390625 13.15625 C 46.234375 13.261719 45.96875 13.316406 45.589844 13.316406 C 45.222656 13.316406 44.957031 13.257812 44.804688 13.148438 C 44.648438 13.039062 44.550781 12.894531 44.519531 12.71875 C 44.488281 12.542969 44.472656 12.363281 44.472656 12.183594 L 44.472656 8.6875 L 43.03125 10.644531 C 42.996094 10.683594 42.949219 10.746094 42.882812 10.828125 C 42.816406 10.910156 42.722656 10.984375 42.601562 11.050781 C 42.476562 11.117188 42.304688 11.148438 42.082031 11.148438 C 41.863281 11.148438 41.6875 11.117188 41.558594 11.050781 C 41.433594 10.984375 41.335938 10.914062 41.269531 10.835938 C 41.203125 10.757812 41.15625 10.695312 41.121094 10.644531 L 39.695312 8.699219 L 39.695312 12.207031 C 39.695312 12.390625 39.679688 12.566406 39.644531 12.738281 C 39.613281 12.910156 39.519531 13.050781 39.363281 13.15625 C 39.207031 13.261719 38.941406 13.316406 38.5625 13.316406 Z M 52.433594 13.304688 C 52.066406 13.304688 51.792969 13.242188 51.617188 13.117188 C 51.441406 12.996094 51.355469 12.855469 51.363281 12.699219 L 51.535156 12.699219 C 51.496094 12.757812 51.414062 12.832031 51.296875 12.929688 C 51.179688 13.023438 51.019531 13.109375 50.824219 13.1875 C 50.625 13.265625 50.382812 13.304688 50.097656 13.304688 C 49.726562 13.304688 49.371094 13.21875 49.03125 13.050781 C 48.691406 12.882812 48.386719 12.652344 48.121094 12.355469 C 47.855469 12.058594 47.644531 11.726562 47.488281 11.351562 C 47.332031 10.980469 47.253906 10.585938 47.253906 10.175781 C 47.253906 9.773438 47.332031 9.390625 47.488281 9.019531 C 47.644531 8.652344 47.855469 8.320312 48.128906 8.027344 C 48.398438 7.738281 48.703125 7.507812 49.039062 7.339844 C 49.375 7.171875 49.730469 7.085938 50.097656 7.085938 C 50.375 7.085938 50.613281 7.128906 50.804688 7.210938 C 51 7.292969 51.152344 7.382812 51.273438 7.480469 C 51.390625 7.578125 51.472656 7.660156 51.511719 7.726562 L 51.378906 7.726562 C 51.371094 7.523438 51.453125 7.363281 51.628906 7.246094 C 51.808594 7.132812 52.082031 7.074219 52.449219 7.074219 C 52.820312 7.074219 53.078125 7.128906 53.230469 7.238281 C 53.382812 7.351562 53.476562 7.492188 53.507812 7.664062 C 53.542969 7.835938 53.558594 8.011719 53.558594 8.195312 L 53.558594 12.195312 C 53.558594 12.375 53.539062 12.550781 53.507812 12.726562 C 53.476562 12.898438 53.382812 13.035156 53.230469 13.144531 C 53.078125 13.25 52.816406 13.304688 52.4375 13.304688 Z M 50.402344 11.074219 C 50.558594 11.074219 50.703125 11.035156 50.828125 10.953125 C 50.957031 10.871094 51.058594 10.761719 51.136719 10.625 C 51.214844 10.492188 51.253906 10.34375 51.253906 10.1875 C 51.253906 10.023438 51.214844 9.875 51.136719 9.746094 C 51.058594 9.613281 50.953125 9.507812 50.824219 9.425781 C 50.691406 9.34375 50.542969 9.300781 50.378906 9.300781 C 50.214844 9.300781 50.066406 9.34375 49.929688 9.425781 C 49.796875 9.507812 49.6875 9.617188 49.605469 9.75 C 49.523438 9.886719 49.480469 10.035156 49.480469 10.203125 C 49.480469 10.355469 49.523438 10.5 49.609375 10.632812 C 49.695312 10.761719 49.808594 10.871094 49.949219 10.953125 C 50.089844 11.035156 50.242188 11.074219 50.40625 11.074219 Z M 56.621094 13.4375 C 56.390625 13.4375 56.132812 13.410156 55.851562 13.359375 C 55.570312 13.304688 55.292969 13.226562 55.027344 13.125 C 54.761719 13.023438 54.539062 12.902344 54.367188 12.761719 C 54.195312 12.621094 54.109375 12.460938 54.109375 12.28125 C 54.109375 12.199219 54.128906 12.105469 54.164062 12.003906 C 54.203125 11.902344 54.253906 11.789062 54.316406 11.664062 C 54.382812 11.542969 54.464844 11.410156 54.566406 11.269531 C 54.621094 11.1875 54.691406 11.128906 54.769531 11.085938 C 54.847656 11.046875 54.9375 11.023438 55.042969 11.023438 C 55.191406 11.023438 55.335938 11.054688 55.476562 11.117188 C 55.613281 11.179688 55.753906 11.246094 55.894531 11.324219 C 56.03125 11.402344 56.179688 11.472656 56.332031 11.535156 C 56.484375 11.597656 56.644531 11.628906 56.816406 11.628906 C 56.972656 11.628906 57.089844 11.609375 57.167969 11.578125 C 57.246094 11.542969 57.285156 11.496094 57.285156 11.429688 C 57.285156 11.363281 57.257812 11.3125 57.203125 11.269531 C 57.152344 11.230469 57.078125 11.195312 56.984375 11.164062 C 56.886719 11.136719 56.78125 11.109375 56.65625 11.085938 C 56.535156 11.0625 56.402344 11.03125 56.261719 11 C 56.125 10.964844 55.980469 10.925781 55.832031 10.875 C 55.644531 10.820312 55.457031 10.742188 55.277344 10.648438 C 55.097656 10.554688 54.933594 10.429688 54.792969 10.273438 C 54.648438 10.117188 54.535156 9.929688 54.449219 9.707031 C 54.359375 9.484375 54.316406 9.214844 54.316406 8.894531 C 54.316406 8.46875 54.417969 8.109375 54.613281 7.824219 C 54.808594 7.535156 55.101562 7.320312 55.488281 7.171875 C 55.871094 7.023438 56.347656 6.949219 56.914062 6.949219 C 57.054688 6.949219 57.195312 6.957031 57.332031 6.976562 C 57.472656 6.992188 57.613281 7.015625 57.757812 7.050781 C 57.902344 7.082031 58.046875 7.125 58.1875 7.179688 C 58.332031 7.230469 58.476562 7.292969 58.625 7.355469 C 58.929688 7.488281 59.085938 7.671875 59.09375 7.90625 C 59.101562 8.136719 59.015625 8.382812 58.835938 8.636719 C 58.738281 8.792969 58.636719 8.910156 58.535156 8.988281 C 58.429688 9.066406 58.328125 9.105469 58.21875 9.105469 C 58.089844 9.105469 57.945312 9.066406 57.789062 8.992188 C 57.632812 8.921875 57.46875 8.847656 57.296875 8.773438 C 57.125 8.699219 56.953125 8.660156 56.78125 8.660156 C 56.683594 8.660156 56.597656 8.671875 56.527344 8.691406 C 56.457031 8.714844 56.40625 8.742188 56.375 8.777344 C 56.34375 8.816406 56.324219 8.859375 56.324219 8.910156 C 56.324219 9 56.355469 9.070312 56.417969 9.125 C 56.480469 9.175781 56.5625 9.21875 56.664062 9.253906 C 56.765625 9.285156 56.886719 9.316406 57.019531 9.339844 C 57.15625 9.363281 57.300781 9.390625 57.457031 9.414062 C 57.671875 9.445312 57.890625 9.496094 58.117188 9.566406 C 58.34375 9.636719 58.550781 9.738281 58.738281 9.867188 C 58.929688 10 59.078125 10.179688 59.195312 10.410156 C 59.308594 10.640625 59.367188 10.941406 59.367188 11.308594 C 59.367188 12.007812 59.136719 12.535156 58.671875 12.898438 C 58.207031 13.257812 57.523438 13.4375 56.621094 13.4375 Z M 63.070312 13.328125 C 62.636719 13.328125 62.257812 13.277344 61.9375 13.179688 C 61.617188 13.082031 61.351562 12.929688 61.144531 12.722656 C 60.933594 12.519531 60.777344 12.261719 60.675781 11.949219 C 60.574219 11.636719 60.523438 11.269531 60.523438 10.851562 L 60.523438 6.078125 C 60.523438 5.886719 60.539062 5.714844 60.570312 5.554688 C 60.605469 5.394531 60.699219 5.261719 60.855469 5.160156 C 61.011719 5.054688 61.273438 5.003906 61.640625 5.003906 C 62.003906 5.003906 62.261719 5.0625 62.417969 5.171875 C 62.574219 5.28125 62.667969 5.421875 62.699219 5.597656 C 62.734375 5.769531 62.75 5.945312 62.75 6.125 L 62.75 10.742188 C 62.75 10.832031 62.753906 10.90625 62.769531 10.96875 C 62.78125 11.03125 62.800781 11.078125 62.824219 11.109375 C 62.847656 11.144531 62.882812 11.167969 62.921875 11.183594 C 62.964844 11.203125 63.015625 11.210938 63.082031 11.210938 C 63.296875 11.210938 63.488281 11.226562 63.65625 11.257812 C 63.824219 11.292969 63.953125 11.378906 64.050781 11.515625 C 64.144531 11.65625 64.191406 11.890625 64.191406 12.21875 C 64.191406 12.589844 64.132812 12.851562 64.019531 13.007812 C 63.902344 13.164062 63.761719 13.253906 63.589844 13.285156 C 63.414062 13.3125 63.242188 13.328125 63.070312 13.328125 Z M 60.265625 7.148438 L 61.703125 7.148438 L 63.402344 7.085938 C 63.582031 7.085938 63.757812 7.101562 63.925781 7.132812 C 64.09375 7.167969 64.234375 7.261719 64.34375 7.417969 C 64.457031 7.574219 64.511719 7.839844 64.511719 8.21875 C 64.511719 8.5625 64.453125 8.8125 64.34375 8.96875 C 64.234375 9.125 64.09375 9.222656 63.925781 9.265625 C 63.757812 9.304688 63.578125 9.324219 63.390625 9.324219 L 61.828125 9.289062 L 60.214844 9.289062 C 59.9375 9.269531 59.742188 9.179688 59.636719 9.015625 C 59.53125 8.851562 59.476562 8.582031 59.476562 8.203125 C 59.476562 7.851562 59.542969 7.585938 59.675781 7.410156 C 59.804688 7.234375 60.003906 7.144531 60.265625 7.144531 Z M 68.179688 13.460938 C 67.5625 13.460938 67.042969 13.363281 66.617188 13.160156 C 66.1875 12.960938 65.84375 12.699219 65.582031 12.375 C 65.320312 12.050781 65.125 11.699219 65.003906 11.320312 C 64.878906 10.945312 64.820312 10.578125 64.820312 10.226562 C 64.820312 9.578125 64.960938 9.007812 65.25 8.515625 C 65.535156 8.023438 65.933594 7.636719 66.441406 7.359375 C 66.953125 7.078125 67.535156 6.9375 68.191406 6.9375 C 68.699219 6.9375 69.136719 7.023438 69.496094 7.1875 C 69.859375 7.351562 70.152344 7.558594 70.378906 7.8125 C 70.601562 8.070312 70.769531 8.339844 70.875 8.625 C 70.984375 8.914062 71.035156 9.179688 71.035156 9.425781 C 71.035156 9.894531 70.921875 10.25 70.691406 10.496094 C 70.460938 10.742188 70.167969 10.867188 69.804688 10.867188 L 67.183594 10.867188 C 67.214844 10.996094 67.285156 11.109375 67.386719 11.207031 C 67.488281 11.300781 67.617188 11.375 67.773438 11.425781 C 67.929688 11.480469 68.097656 11.507812 68.277344 11.507812 C 68.460938 11.507812 68.617188 11.496094 68.757812 11.476562 C 68.898438 11.457031 69.019531 11.429688 69.121094 11.398438 C 69.226562 11.363281 69.320312 11.332031 69.40625 11.296875 C 69.492188 11.265625 69.570312 11.238281 69.640625 11.21875 C 69.710938 11.199219 69.777344 11.1875 69.84375 11.1875 C 69.992188 11.1875 70.125 11.238281 70.25 11.335938 C 70.371094 11.433594 70.484375 11.582031 70.582031 11.777344 C 70.640625 11.886719 70.679688 11.984375 70.703125 12.078125 C 70.730469 12.175781 70.742188 12.261719 70.742188 12.34375 C 70.742188 12.589844 70.640625 12.796875 70.441406 12.960938 C 70.238281 13.125 69.949219 13.25 69.574219 13.335938 C 69.195312 13.421875 68.730469 13.464844 68.183594 13.464844 Z M 67.179688 9.707031 L 68.5625 9.707031 C 68.675781 9.707031 68.761719 9.683594 68.8125 9.632812 C 68.867188 9.585938 68.894531 9.511719 68.894531 9.414062 C 68.894531 9.304688 68.863281 9.214844 68.800781 9.140625 C 68.738281 9.066406 68.65625 9.011719 68.550781 8.976562 C 68.441406 8.9375 68.316406 8.921875 68.167969 8.921875 C 67.972656 8.921875 67.796875 8.960938 67.652344 9.039062 C 67.503906 9.113281 67.390625 9.214844 67.3125 9.332031 C 67.234375 9.453125 67.191406 9.578125 67.183594 9.707031 Z M 72.695312 13.328125 C 72.328125 13.328125 72.0625 13.273438 71.910156 13.160156 C 71.753906 13.050781 71.660156 12.90625 71.632812 12.730469 C 71.601562 12.554688 71.589844 12.375 71.589844 12.195312 L 71.589844 8.183594 C 71.589844 7.992188 71.605469 7.816406 71.636719 7.648438 C 71.671875 7.480469 71.765625 7.34375 71.921875 7.234375 C 72.078125 7.128906 72.339844 7.074219 72.707031 7.074219 C 73.070312 7.074219 73.324219 7.125 73.476562 7.222656 C 73.628906 7.320312 73.722656 7.429688 73.753906 7.546875 C 73.789062 7.667969 73.804688 7.761719 73.804688 7.824219 L 73.605469 7.75 C 73.605469 7.75 73.640625 7.714844 73.707031 7.640625 C 73.769531 7.566406 73.867188 7.480469 73.996094 7.382812 C 74.121094 7.28125 74.273438 7.195312 74.449219 7.121094 C 74.628906 7.050781 74.824219 7.011719 75.046875 7.011719 C 75.121094 7.011719 75.214844 7.015625 75.324219 7.03125 C 75.4375 7.042969 75.554688 7.066406 75.679688 7.097656 C 75.808594 7.132812 75.929688 7.179688 76.039062 7.246094 C 76.148438 7.3125 76.238281 7.398438 76.308594 7.503906 C 76.378906 7.613281 76.414062 7.742188 76.414062 7.898438 C 76.414062 8.308594 76.324219 8.65625 76.148438 8.945312 C 75.972656 9.230469 75.742188 9.375 75.453125 9.375 C 75.296875 9.375 75.1875 9.367188 75.121094 9.34375 C 75.054688 9.324219 75.007812 9.304688 74.980469 9.285156 C 74.949219 9.261719 74.917969 9.242188 74.882812 9.222656 C 74.84375 9.203125 74.777344 9.191406 74.675781 9.191406 C 74.554688 9.191406 74.441406 9.207031 74.339844 9.234375 C 74.234375 9.265625 74.148438 9.308594 74.070312 9.363281 C 73.992188 9.421875 73.929688 9.488281 73.890625 9.566406 C 73.847656 9.644531 73.828125 9.730469 73.828125 9.820312 L 73.828125 12.21875 C 73.828125 12.402344 73.8125 12.578125 73.78125 12.75 C 73.746094 12.921875 73.652344 13.0625 73.496094 13.167969 C 73.339844 13.273438 73.074219 13.328125 72.695312 13.328125 Z M 77.988281 13.328125 C 77.621094 13.328125 77.355469 13.273438 77.203125 13.160156 C 77.046875 13.050781 76.953125 12.910156 76.925781 12.738281 C 76.894531 12.5625 76.882812 12.386719 76.882812 12.207031 L 76.882812 8.183594 C 76.882812 7.992188 76.898438 7.8125 76.929688 7.644531 C 76.964844 7.476562 77.058594 7.339844 77.214844 7.234375 C 77.371094 7.128906 77.636719 7.074219 78.011719 7.074219 C 78.382812 7.074219 78.652344 7.144531 78.820312 7.289062 C 78.988281 7.433594 79.070312 7.664062 79.070312 7.984375 L 78.863281 7.921875 C 78.863281 7.921875 78.894531 7.878906 78.953125 7.792969 C 79.015625 7.707031 79.105469 7.609375 79.226562 7.492188 C 79.34375 7.378906 79.488281 7.277344 79.664062 7.191406 C 79.835938 7.105469 80.03125 7.0625 80.253906 7.0625 C 80.507812 7.0625 80.742188 7.09375 80.957031 7.160156 C 81.167969 7.226562 81.363281 7.328125 81.539062 7.460938 C 81.71875 7.597656 81.871094 7.765625 82 7.960938 C 82.09375 7.855469 82.214844 7.730469 82.371094 7.589844 C 82.527344 7.453125 82.714844 7.328125 82.929688 7.222656 C 83.148438 7.117188 83.390625 7.0625 83.664062 7.0625 C 84.148438 7.0625 84.5625 7.183594 84.902344 7.429688 C 85.242188 7.679688 85.5 8.035156 85.675781 8.503906 C 85.851562 8.972656 85.941406 9.535156 85.941406 10.203125 L 85.941406 12.207031 C 85.941406 12.390625 85.925781 12.566406 85.890625 12.738281 C 85.859375 12.910156 85.765625 13.050781 85.609375 13.164062 C 85.453125 13.273438 85.1875 13.328125 84.808594 13.328125 C 84.441406 13.328125 84.175781 13.269531 84.023438 13.15625 C 83.867188 13.039062 83.773438 12.898438 83.746094 12.726562 C 83.714844 12.550781 83.703125 12.375 83.703125 12.195312 L 83.703125 10.1875 C 83.703125 9.992188 83.679688 9.828125 83.632812 9.703125 C 83.589844 9.574219 83.523438 9.480469 83.4375 9.414062 C 83.351562 9.347656 83.242188 9.3125 83.109375 9.3125 C 82.972656 9.3125 82.859375 9.34375 82.773438 9.402344 C 82.6875 9.457031 82.625 9.550781 82.585938 9.679688 C 82.550781 9.804688 82.53125 9.980469 82.53125 10.203125 L 82.53125 12.207031 C 82.53125 12.390625 82.515625 12.566406 82.484375 12.738281 C 82.449219 12.910156 82.355469 13.050781 82.199219 13.164062 C 82.042969 13.273438 81.777344 13.328125 81.398438 13.328125 C 81.03125 13.328125 80.769531 13.269531 80.613281 13.15625 C 80.457031 13.039062 80.363281 12.898438 80.335938 12.726562 C 80.304688 12.550781 80.292969 12.375 80.292969 12.195312 L 80.292969 10.1875 C 80.292969 9.992188 80.273438 9.828125 80.230469 9.695312 C 80.191406 9.566406 80.125 9.46875 80.039062 9.40625 C 79.953125 9.347656 79.839844 9.316406 79.703125 9.316406 C 79.539062 9.316406 79.414062 9.355469 79.332031 9.4375 C 79.25 9.519531 79.195312 9.625 79.167969 9.757812 C 79.136719 9.890625 79.125 10.03125 79.125 10.1875 L 79.125 12.21875 C 79.125 12.402344 79.105469 12.578125 79.074219 12.75 C 79.042969 12.921875 78.949219 13.0625 78.792969 13.167969 C 78.636719 13.273438 78.367188 13.328125 77.992188 13.328125 Z M 87.8125 13.328125 C 87.441406 13.328125 87.179688 13.273438 87.023438 13.160156 C 86.867188 13.050781 86.777344 12.910156 86.746094 12.738281 C 86.71875 12.5625 86.703125 12.386719 86.703125 12.207031 L 86.703125 8.195312 C 86.703125 8.011719 86.722656 7.839844 86.753906 7.671875 C 86.785156 7.503906 86.878906 7.363281 87.035156 7.253906 C 87.191406 7.140625 87.453125 7.085938 87.824219 7.085938 C 88.191406 7.085938 88.453125 7.140625 88.605469 7.253906 C 88.757812 7.363281 88.851562 7.503906 88.882812 7.675781 C 88.917969 7.851562 88.933594 8.03125 88.933594 8.21875 L 88.933594 12.21875 C 88.933594 12.402344 88.914062 12.578125 88.882812 12.75 C 88.851562 12.921875 88.757812 13.0625 88.605469 13.167969 C 88.453125 13.273438 88.1875 13.328125 87.8125 13.328125 Z M 87.8125 6.480469 C 87.441406 6.480469 87.179688 6.425781 87.023438 6.316406 C 86.867188 6.203125 86.777344 6.0625 86.746094 5.890625 C 86.71875 5.71875 86.703125 5.542969 86.703125 5.363281 C 86.703125 5.171875 86.722656 4.996094 86.753906 4.828125 C 86.785156 4.660156 86.878906 4.519531 87.035156 4.414062 C 87.191406 4.308594 87.453125 4.253906 87.824219 4.253906 C 88.191406 4.253906 88.453125 4.308594 88.605469 4.421875 C 88.757812 4.53125 88.851562 4.671875 88.882812 4.84375 C 88.917969 5.019531 88.933594 5.195312 88.933594 5.375 C 88.933594 5.554688 88.914062 5.730469 88.882812 5.902344 C 88.851562 6.078125 88.757812 6.214844 88.605469 6.320312 C 88.453125 6.429688 88.1875 6.480469 87.8125 6.480469 Z M 90.839844 13.316406 C 90.472656 13.316406 90.207031 13.257812 90.054688 13.148438 C 89.898438 13.039062 89.804688 12.898438 89.777344 12.722656 C 89.746094 12.550781 89.734375 12.375 89.734375 12.195312 L 89.734375 8.144531 C 89.734375 7.964844 89.75 7.792969 89.78125 7.628906 C 89.816406 7.464844 89.910156 7.332031 90.066406 7.226562 C 90.222656 7.125 90.484375 7.074219 90.851562 7.074219 C 91.1875 7.074219 91.433594 7.117188 91.585938 7.203125 C 91.738281 7.289062 91.832031 7.394531 91.875 7.515625 C 91.914062 7.640625 91.933594 7.753906 91.929688 7.855469 C 91.925781 7.957031 91.933594 8.023438 91.949219 8.046875 L 91.851562 8.121094 C 91.839844 7.996094 91.890625 7.875 91.992188 7.75 C 92.09375 7.628906 92.230469 7.515625 92.398438 7.414062 C 92.566406 7.308594 92.746094 7.226562 92.941406 7.164062 C 93.132812 7.105469 93.316406 7.074219 93.488281 7.074219 C 93.898438 7.074219 94.257812 7.152344 94.570312 7.308594 C 94.882812 7.464844 95.144531 7.683594 95.351562 7.964844 C 95.5625 8.25 95.722656 8.578125 95.828125 8.957031 C 95.933594 9.335938 95.988281 9.746094 95.988281 10.1875 L 95.988281 12.207031 C 95.988281 12.390625 95.96875 12.566406 95.9375 12.738281 C 95.90625 12.910156 95.8125 13.050781 95.660156 13.15625 C 95.507812 13.261719 95.246094 13.316406 94.867188 13.316406 C 94.488281 13.316406 94.222656 13.261719 94.066406 13.148438 C 93.910156 13.039062 93.816406 12.898438 93.785156 12.726562 C 93.75 12.550781 93.734375 12.375 93.734375 12.195312 L 93.734375 10.1875 C 93.734375 10 93.699219 9.839844 93.628906 9.707031 C 93.5625 9.578125 93.460938 9.476562 93.335938 9.40625 C 93.207031 9.335938 93.050781 9.300781 92.863281 9.300781 C 92.679688 9.300781 92.523438 9.339844 92.386719 9.414062 C 92.253906 9.488281 92.148438 9.589844 92.074219 9.722656 C 92 9.851562 91.964844 10.007812 91.964844 10.191406 L 91.964844 12.207031 C 91.964844 12.390625 91.945312 12.566406 91.914062 12.738281 C 91.878906 12.910156 91.789062 13.050781 91.636719 13.15625 C 91.484375 13.261719 91.21875 13.316406 90.84375 13.316406 Z M 99.359375 13.300781 C 98.988281 13.300781 98.636719 13.21875 98.292969 13.050781 C 97.953125 12.882812 97.652344 12.652344 97.382812 12.359375 C 97.117188 12.070312 96.90625 11.734375 96.75 11.355469 C 96.59375 10.980469 96.515625 10.585938 96.515625 10.175781 C 96.515625 9.78125 96.59375 9.398438 96.75 9.03125 C 96.90625 8.660156 97.117188 8.332031 97.390625 8.039062 C 97.660156 7.75 97.96875 7.515625 98.308594 7.34375 C 98.648438 7.171875 99 7.085938 99.359375 7.085938 C 99.753906 7.085938 100.09375 7.167969 100.378906 7.335938 C 100.667969 7.507812 100.90625 7.734375 101.09375 8.019531 C 101.285156 8.308594 101.425781 8.636719 101.519531 9.003906 C 101.613281 9.375 101.664062 9.757812 101.675781 10.152344 C 101.683594 10.554688 101.640625 10.941406 101.550781 11.3125 C 101.460938 11.6875 101.320312 12.023438 101.132812 12.324219 C 100.945312 12.625 100.703125 12.863281 100.414062 13.039062 C 100.121094 13.214844 99.769531 13.300781 99.359375 13.300781 Z M 99.65625 11.085938 C 99.8125 11.085938 99.953125 11.046875 100.085938 10.964844 C 100.214844 10.882812 100.324219 10.773438 100.40625 10.636719 C 100.488281 10.503906 100.527344 10.355469 100.527344 10.199219 C 100.527344 10.035156 100.488281 9.886719 100.410156 9.757812 C 100.332031 9.625 100.230469 9.519531 100.097656 9.4375 C 99.964844 9.355469 99.816406 9.3125 99.640625 9.3125 C 99.476562 9.3125 99.328125 9.351562 99.191406 9.429688 C 99.058594 9.507812 98.949219 9.617188 98.871094 9.75 C 98.792969 9.886719 98.753906 10.035156 98.753906 10.203125 C 98.753906 10.355469 98.796875 10.503906 98.878906 10.640625 C 98.960938 10.773438 99.070312 10.882812 99.210938 10.964844 C 99.351562 11.046875 99.496094 11.085938 99.652344 11.085938 Z M 101.671875 13.316406 C 101.34375 13.316406 101.097656 13.265625 100.933594 13.167969 C 100.769531 13.066406 100.660156 12.914062 100.601562 12.699219 L 100.601562 5.375 C 100.601562 5.195312 100.613281 5.019531 100.632812 4.84375 C 100.652344 4.671875 100.738281 4.53125 100.886719 4.421875 C 101.03125 4.308594 101.292969 4.253906 101.660156 4.253906 C 102.039062 4.253906 102.304688 4.308594 102.453125 4.414062 C 102.605469 4.519531 102.699219 4.660156 102.730469 4.828125 C 102.765625 4.996094 102.78125 5.171875 102.78125 5.363281 L 102.78125 12.195312 C 102.78125 12.375 102.765625 12.550781 102.730469 12.722656 C 102.699219 12.898438 102.605469 13.039062 102.453125 13.148438 C 102.304688 13.261719 102.042969 13.316406 101.671875 13.316406 Z M 105.847656 13.4375 C 105.617188 13.4375 105.359375 13.410156 105.078125 13.359375 C 104.792969 13.304688 104.519531 13.226562 104.253906 13.125 C 103.984375 13.019531 103.765625 12.898438 103.59375 12.761719 C 103.421875 12.621094 103.335938 12.460938 103.335938 12.28125 C 103.335938 12.199219 103.351562 12.105469 103.390625 12.003906 C 103.425781 11.898438 103.476562 11.789062 103.542969 11.664062 C 103.609375 11.542969 103.691406 11.410156 103.789062 11.269531 C 103.847656 11.1875 103.914062 11.125 103.992188 11.085938 C 104.070312 11.042969 104.164062 11.023438 104.269531 11.023438 C 104.417969 11.023438 104.5625 11.054688 104.703125 11.117188 C 104.839844 11.175781 104.980469 11.246094 105.121094 11.324219 C 105.257812 11.402344 105.40625 11.472656 105.558594 11.535156 C 105.707031 11.59375 105.871094 11.625 106.042969 11.625 C 106.199219 11.625 106.316406 11.609375 106.394531 11.578125 C 106.472656 11.542969 106.511719 11.496094 106.511719 11.429688 C 106.511719 11.363281 106.484375 11.3125 106.429688 11.269531 C 106.378906 11.230469 106.304688 11.191406 106.207031 11.164062 C 106.113281 11.136719 106.003906 11.109375 105.882812 11.085938 C 105.761719 11.058594 105.628906 11.03125 105.488281 11 C 105.347656 10.964844 105.207031 10.925781 105.058594 10.875 C 104.871094 10.820312 104.683594 10.742188 104.503906 10.648438 C 104.324219 10.554688 104.160156 10.429688 104.015625 10.273438 C 103.875 10.117188 103.757812 9.929688 103.671875 9.707031 C 103.585938 9.484375 103.542969 9.214844 103.542969 8.894531 C 103.542969 8.46875 103.640625 8.109375 103.839844 7.824219 C 104.035156 7.535156 104.328125 7.320312 104.710938 7.171875 C 105.097656 7.023438 105.574219 6.949219 106.140625 6.949219 C 106.28125 6.949219 106.417969 6.957031 106.558594 6.972656 C 106.699219 6.992188 106.839844 7.015625 106.984375 7.046875 C 107.128906 7.082031 107.269531 7.125 107.414062 7.175781 C 107.558594 7.230469 107.703125 7.289062 107.851562 7.355469 C 108.15625 7.488281 108.3125 7.667969 108.320312 7.902344 C 108.328125 8.136719 108.242188 8.382812 108.0625 8.636719 C 107.964844 8.792969 107.863281 8.910156 107.757812 8.988281 C 107.65625 9.066406 107.550781 9.105469 107.445312 9.105469 C 107.316406 9.105469 107.171875 9.066406 107.015625 8.992188 C 106.859375 8.917969 106.695312 8.84375 106.523438 8.773438 C 106.351562 8.699219 106.179688 8.660156 106.007812 8.660156 C 105.90625 8.660156 105.824219 8.671875 105.753906 8.691406 C 105.683594 8.710938 105.632812 8.742188 105.601562 8.777344 C 105.566406 8.816406 105.550781 8.859375 105.550781 8.90625 C 105.550781 9 105.582031 9.070312 105.644531 9.125 C 105.707031 9.175781 105.789062 9.21875 105.890625 9.253906 C 105.992188 9.285156 106.113281 9.3125 106.246094 9.339844 C 106.382812 9.363281 106.527344 9.386719 106.683594 9.414062 C 106.898438 9.445312 107.117188 9.496094 107.34375 9.566406 C 107.570312 9.636719 107.777344 9.738281 107.964844 9.867188 C 108.152344 10 108.304688 10.179688 108.421875 10.410156 C 108.535156 10.640625 108.59375 10.9375 108.59375 11.308594 C 108.59375 12.007812 108.359375 12.535156 107.898438 12.898438 C 107.433594 13.257812 106.75 13.4375 105.847656 13.4375 Z M 38.574219 22.714844 C 38.21875 22.714844 37.964844 22.660156 37.808594 22.554688 C 37.652344 22.445312 37.554688 22.304688 37.515625 22.132812 C 37.472656 21.960938 37.453125 21.777344 37.453125 21.582031 L 37.453125 15.214844 C 37.453125 15.035156 37.46875 14.859375 37.5 14.6875 C 37.535156 14.515625 37.628906 14.371094 37.785156 14.261719 C 37.941406 14.152344 38.207031 14.101562 38.585938 14.105469 L 40.703125 14.105469 C 41.285156 14.105469 41.835938 14.21875 42.351562 14.441406 C 42.867188 14.660156 43.328125 14.96875 43.722656 15.355469 C 44.121094 15.746094 44.433594 16.199219 44.660156 16.71875 C 44.886719 17.234375 45 17.785156 45 18.367188 C 45 18.964844 44.886719 19.527344 44.660156 20.054688 C 44.433594 20.578125 44.121094 21.039062 43.722656 21.4375 C 43.324219 21.835938 42.867188 22.148438 42.34375 22.375 C 41.824219 22.597656 41.261719 22.710938 40.664062 22.710938 L 38.570312 22.710938 Z M 39.707031 20.460938 L 40.703125 20.460938 C 41.070312 20.460938 41.414062 20.367188 41.722656 20.183594 C 42.035156 19.996094 42.285156 19.753906 42.46875 19.445312 C 42.652344 19.136719 42.746094 18.792969 42.746094 18.417969 C 42.746094 18.039062 42.652344 17.695312 42.46875 17.382812 C 42.285156 17.070312 42.035156 16.824219 41.722656 16.636719 C 41.414062 16.453125 41.066406 16.359375 40.691406 16.359375 L 39.707031 16.359375 Z M 50.539062 22.699219 C 50.167969 22.699219 49.894531 22.640625 49.71875 22.515625 C 49.542969 22.394531 49.457031 22.253906 49.464844 22.097656 L 49.640625 22.097656 C 49.597656 22.15625 49.519531 22.230469 49.398438 22.324219 C 49.28125 22.421875 49.121094 22.507812 48.925781 22.582031 C 48.730469 22.660156 48.488281 22.699219 48.199219 22.699219 C 47.832031 22.699219 47.476562 22.617188 47.136719 22.449219 C 46.792969 22.28125 46.492188 22.046875 46.222656 21.753906 C 45.957031 21.457031 45.746094 21.125 45.589844 20.75 C 45.433594 20.375 45.355469 19.984375 45.355469 19.574219 C 45.355469 19.171875 45.433594 18.785156 45.589844 18.417969 C 45.746094 18.046875 45.960938 17.71875 46.230469 17.425781 C 46.5 17.136719 46.804688 16.90625 47.140625 16.738281 C 47.476562 16.570312 47.832031 16.484375 48.199219 16.484375 C 48.480469 16.484375 48.714844 16.523438 48.90625 16.609375 C 49.101562 16.691406 49.257812 16.78125 49.375 16.878906 C 49.496094 16.976562 49.574219 17.058594 49.617188 17.125 L 49.480469 17.125 C 49.472656 16.917969 49.558594 16.757812 49.734375 16.644531 C 49.910156 16.527344 50.183594 16.472656 50.550781 16.472656 C 50.921875 16.472656 51.179688 16.527344 51.332031 16.636719 C 51.484375 16.746094 51.578125 16.890625 51.609375 17.0625 C 51.644531 17.234375 51.660156 17.410156 51.660156 17.589844 L 51.660156 21.59375 C 51.660156 21.773438 51.644531 21.949219 51.609375 22.121094 C 51.578125 22.292969 51.484375 22.433594 51.332031 22.539062 C 51.179688 22.648438 50.917969 22.699219 50.539062 22.699219 Z M 48.507812 20.472656 C 48.664062 20.472656 48.804688 20.433594 48.929688 20.351562 C 49.058594 20.269531 49.160156 20.160156 49.238281 20.023438 C 49.316406 19.886719 49.355469 19.742188 49.355469 19.585938 C 49.355469 19.421875 49.316406 19.273438 49.238281 19.144531 C 49.160156 19.011719 49.054688 18.90625 48.925781 18.824219 C 48.792969 18.742188 48.648438 18.699219 48.484375 18.699219 C 48.316406 18.699219 48.167969 18.742188 48.03125 18.824219 C 47.898438 18.90625 47.789062 19.015625 47.707031 19.148438 C 47.625 19.285156 47.582031 19.433594 47.582031 19.597656 C 47.582031 19.753906 47.628906 19.898438 47.714844 20.03125 C 47.800781 20.160156 47.914062 20.269531 48.050781 20.351562 C 48.191406 20.433594 48.34375 20.472656 48.507812 20.472656 Z M 54.105469 25.25 C 53.703125 25.066406 53.472656 24.871094 53.40625 24.652344 C 53.339844 24.433594 53.394531 24.148438 53.566406 23.796875 L 56.558594 17.097656 C 56.730469 16.710938 56.914062 16.484375 57.109375 16.410156 C 57.308594 16.335938 57.609375 16.378906 58.023438 16.542969 C 58.417969 16.726562 58.648438 16.917969 58.71875 17.121094 C 58.785156 17.328125 58.742188 17.601562 58.589844 17.949219 L 55.570312 24.707031 C 55.40625 25.09375 55.226562 25.324219 55.023438 25.402344 C 54.824219 25.480469 54.515625 25.429688 54.105469 25.25 Z M 55.105469 22.539062 L 52.175781 18.109375 C 51.960938 17.78125 51.875 17.507812 51.914062 17.289062 C 51.957031 17.070312 52.152344 16.851562 52.507812 16.628906 C 52.890625 16.390625 53.191406 16.300781 53.398438 16.355469 C 53.609375 16.40625 53.824219 16.601562 54.046875 16.9375 L 56.039062 19.953125 Z M 55.105469 22.539062 " fill-opacity="1" fill-rule="nonzero"/><path fill="#009e9a" d="M 62.039062 22.789062 C 61.699219 22.789062 61.347656 22.71875 60.972656 22.585938 C 60.597656 22.449219 60.25 22.25 59.921875 21.980469 C 59.59375 21.714844 59.324219 21.378906 59.121094 20.976562 C 58.914062 20.574219 58.8125 20.109375 58.8125 19.574219 C 58.8125 19.050781 58.914062 18.589844 59.121094 18.191406 C 59.324219 17.792969 59.589844 17.460938 59.914062 17.199219 C 60.238281 16.9375 60.585938 16.738281 60.960938 16.601562 C 61.335938 16.46875 61.683594 16.398438 62.015625 16.398438 C 62.324219 16.398438 62.597656 16.433594 62.828125 16.496094 C 63.054688 16.5625 63.246094 16.636719 63.390625 16.714844 C 63.539062 16.792969 63.648438 16.851562 63.710938 16.890625 C 63.875 16.992188 64.03125 17.105469 64.171875 17.230469 C 64.316406 17.359375 64.390625 17.527344 64.390625 17.742188 C 64.390625 17.847656 64.367188 17.957031 64.328125 18.066406 C 64.289062 18.179688 64.222656 18.304688 64.132812 18.441406 C 63.835938 18.894531 63.539062 19.121094 63.246094 19.121094 C 63.113281 19.121094 63 19.097656 62.902344 19.050781 C 62.800781 19.007812 62.710938 18.957031 62.628906 18.898438 C 62.546875 18.839844 62.460938 18.789062 62.367188 18.746094 C 62.269531 18.699219 62.152344 18.675781 62.015625 18.675781 C 61.851562 18.675781 61.699219 18.714844 61.558594 18.800781 C 61.417969 18.882812 61.308594 18.988281 61.226562 19.125 C 61.144531 19.261719 61.105469 19.414062 61.105469 19.585938 C 61.105469 19.757812 61.144531 19.914062 61.226562 20.054688 C 61.308594 20.195312 61.417969 20.304688 61.550781 20.386719 C 61.6875 20.46875 61.832031 20.511719 61.988281 20.511719 C 62.105469 20.511719 62.203125 20.496094 62.28125 20.472656 C 62.359375 20.449219 62.417969 20.421875 62.457031 20.394531 C 62.5 20.363281 62.523438 20.351562 62.53125 20.351562 C 62.648438 20.285156 62.753906 20.222656 62.859375 20.164062 C 62.960938 20.109375 63.066406 20.078125 63.171875 20.078125 C 63.3125 20.078125 63.453125 20.128906 63.601562 20.234375 C 63.75 20.335938 63.914062 20.5 64.09375 20.730469 C 64.265625 20.945312 64.363281 21.144531 64.382812 21.328125 C 64.40625 21.515625 64.355469 21.6875 64.242188 21.847656 C 64.125 22.007812 63.949219 22.160156 63.710938 22.308594 C 63.6875 22.324219 63.605469 22.371094 63.460938 22.449219 C 63.316406 22.527344 63.125 22.601562 62.886719 22.675781 C 62.648438 22.75 62.367188 22.789062 62.039062 22.789062 Z M 70.0625 22.703125 C 69.695312 22.703125 69.421875 22.640625 69.246094 22.515625 C 69.066406 22.394531 68.984375 22.253906 68.992188 22.097656 L 69.164062 22.097656 C 69.125 22.15625 69.042969 22.230469 68.925781 22.328125 C 68.804688 22.421875 68.648438 22.507812 68.449219 22.585938 C 68.253906 22.664062 68.011719 22.703125 67.726562 22.703125 C 67.355469 22.703125 67 22.617188 66.660156 22.449219 C 66.320312 22.28125 66.015625 22.050781 65.75 21.753906 C 65.484375 21.457031 65.273438 21.125 65.117188 20.75 C 64.960938 20.378906 64.882812 19.984375 64.882812 19.574219 C 64.882812 19.171875 64.960938 18.789062 65.117188 18.417969 C 65.273438 18.046875 65.484375 17.71875 65.757812 17.425781 C 66.027344 17.136719 66.332031 16.90625 66.667969 16.738281 C 67.003906 16.570312 67.355469 16.484375 67.726562 16.484375 C 68.003906 16.484375 68.242188 16.527344 68.433594 16.609375 C 68.625 16.691406 68.78125 16.78125 68.902344 16.878906 C 69.019531 16.976562 69.101562 17.058594 69.140625 17.125 L 69.007812 17.125 C 68.996094 16.921875 69.082031 16.761719 69.257812 16.644531 C 69.433594 16.53125 69.707031 16.472656 70.078125 16.472656 C 70.445312 16.472656 70.707031 16.527344 70.859375 16.636719 C 71.011719 16.75 71.101562 16.890625 71.136719 17.0625 C 71.167969 17.234375 71.183594 17.410156 71.183594 17.59375 L 71.183594 21.59375 C 71.183594 21.773438 71.167969 21.949219 71.136719 22.125 C 71.101562 22.296875 71.011719 22.433594 70.859375 22.542969 C 70.707031 22.648438 70.441406 22.703125 70.066406 22.703125 Z M 68.03125 20.472656 C 68.1875 20.472656 68.328125 20.433594 68.457031 20.351562 C 68.582031 20.269531 68.6875 20.160156 68.765625 20.023438 C 68.84375 19.890625 68.882812 19.742188 68.882812 19.585938 C 68.882812 19.421875 68.84375 19.273438 68.765625 19.144531 C 68.6875 19.011719 68.582031 18.90625 68.449219 18.824219 C 68.320312 18.742188 68.171875 18.699219 68.007812 18.699219 C 67.84375 18.699219 67.695312 18.742188 67.558594 18.824219 C 67.421875 18.90625 67.3125 19.015625 67.230469 19.148438 C 67.148438 19.285156 67.109375 19.433594 67.109375 19.601562 C 67.109375 19.753906 67.152344 19.898438 67.238281 20.03125 C 67.324219 20.160156 67.4375 20.269531 67.578125 20.351562 C 67.71875 20.433594 67.867188 20.472656 68.03125 20.472656 Z M 73.03125 22.726562 C 72.660156 22.726562 72.398438 22.671875 72.242188 22.558594 C 72.085938 22.449219 71.996094 22.304688 71.964844 22.128906 C 71.9375 21.953125 71.921875 21.773438 71.921875 21.59375 L 71.921875 17.582031 C 71.921875 17.390625 71.9375 17.214844 71.972656 17.046875 C 72.003906 16.878906 72.097656 16.742188 72.253906 16.632812 C 72.410156 16.527344 72.671875 16.472656 73.042969 16.472656 C 73.402344 16.472656 73.660156 16.523438 73.808594 16.621094 C 73.960938 16.71875 74.054688 16.828125 74.085938 16.949219 C 74.121094 17.066406 74.136719 17.160156 74.136719 17.226562 L 73.941406 17.152344 C 73.941406 17.152344 73.972656 17.113281 74.039062 17.039062 C 74.105469 16.964844 74.199219 16.878906 74.328125 16.78125 C 74.457031 16.683594 74.605469 16.597656 74.785156 16.523438 C 74.960938 16.449219 75.160156 16.410156 75.382812 16.410156 C 75.453125 16.410156 75.546875 16.417969 75.660156 16.429688 C 75.769531 16.441406 75.886719 16.464844 76.015625 16.496094 C 76.140625 16.53125 76.261719 16.578125 76.371094 16.644531 C 76.484375 16.710938 76.574219 16.796875 76.640625 16.902344 C 76.710938 17.011719 76.746094 17.140625 76.746094 17.296875 C 76.746094 17.707031 76.660156 18.058594 76.480469 18.34375 C 76.304688 18.632812 76.074219 18.773438 75.785156 18.773438 C 75.632812 18.773438 75.519531 18.765625 75.453125 18.746094 C 75.390625 18.722656 75.34375 18.703125 75.3125 18.683594 C 75.285156 18.660156 75.25 18.640625 75.214844 18.621094 C 75.175781 18.601562 75.109375 18.589844 75.011719 18.589844 C 74.886719 18.589844 74.777344 18.605469 74.671875 18.632812 C 74.570312 18.664062 74.480469 18.707031 74.402344 18.761719 C 74.324219 18.820312 74.265625 18.886719 74.222656 18.964844 C 74.183594 19.042969 74.164062 19.128906 74.164062 19.21875 L 74.164062 21.621094 C 74.164062 21.800781 74.144531 21.976562 74.113281 22.148438 C 74.082031 22.320312 73.988281 22.460938 73.832031 22.566406 C 73.675781 22.675781 73.40625 22.726562 73.03125 22.726562 Z M 80.046875 22.863281 C 79.429688 22.863281 78.910156 22.761719 78.484375 22.558594 C 78.054688 22.359375 77.710938 22.097656 77.449219 21.773438 C 77.1875 21.449219 76.992188 21.097656 76.871094 20.722656 C 76.746094 20.34375 76.6875 19.976562 76.6875 19.625 C 76.6875 18.976562 76.828125 18.40625 77.117188 17.914062 C 77.402344 17.421875 77.800781 17.035156 78.308594 16.757812 C 78.820312 16.476562 79.402344 16.339844 80.058594 16.339844 C 80.566406 16.339844 81 16.421875 81.363281 16.585938 C 81.726562 16.75 82.019531 16.957031 82.242188 17.214844 C 82.46875 17.46875 82.636719 17.738281 82.742188 18.027344 C 82.851562 18.3125 82.902344 18.578125 82.902344 18.824219 C 82.902344 19.292969 82.789062 19.648438 82.558594 19.898438 C 82.328125 20.144531 82.035156 20.265625 81.671875 20.265625 L 79.050781 20.265625 C 79.082031 20.398438 79.152344 20.511719 79.253906 20.605469 C 79.355469 20.699219 79.484375 20.773438 79.640625 20.824219 C 79.796875 20.878906 79.964844 20.90625 80.144531 20.90625 C 80.328125 20.90625 80.484375 20.898438 80.625 20.875 C 80.765625 20.855469 80.886719 20.828125 80.988281 20.796875 C 81.09375 20.761719 81.1875 20.730469 81.273438 20.699219 C 81.359375 20.664062 81.4375 20.636719 81.507812 20.617188 C 81.574219 20.597656 81.644531 20.585938 81.710938 20.585938 C 81.855469 20.585938 81.992188 20.636719 82.117188 20.734375 C 82.238281 20.832031 82.351562 20.980469 82.449219 21.179688 C 82.507812 21.285156 82.546875 21.386719 82.570312 21.480469 C 82.597656 21.574219 82.609375 21.660156 82.609375 21.742188 C 82.609375 21.992188 82.507812 22.195312 82.308594 22.359375 C 82.105469 22.523438 81.816406 22.648438 81.441406 22.734375 C 81.0625 22.820312 80.597656 22.863281 80.050781 22.863281 Z M 79.046875 19.105469 L 80.429688 19.105469 C 80.542969 19.105469 80.625 19.082031 80.679688 19.03125 C 80.734375 18.984375 80.761719 18.910156 80.761719 18.8125 C 80.761719 18.703125 80.730469 18.613281 80.667969 18.539062 C 80.605469 18.46875 80.523438 18.410156 80.417969 18.375 C 80.308594 18.335938 80.183594 18.320312 80.035156 18.320312 C 79.835938 18.320312 79.664062 18.359375 79.515625 18.4375 C 79.371094 18.515625 79.257812 18.613281 79.179688 18.730469 C 79.101562 18.851562 79.058594 18.976562 79.050781 19.105469 Z M 79.046875 19.105469 " fill-opacity="1" fill-rule="nonzero"/></svg>