<?xml version="1.0" encoding="UTF-8"?>
<!DOCTYPE svg PUBLIC "-//W3C//DTD SVG 1.1//EN" "http://www.w3.org/Graphics/SVG/1.1/DTD/svg11.dtd">
<!-- Creator: CorelDRAW 2021 (64-Bit OEM Version) -->
<svg xmlns="http://www.w3.org/2000/svg" xml:space="preserve" width="11.9477in" height="4.84351in" version="1.1" style="shape-rendering:geometricPrecision; text-rendering:geometricPrecision; image-rendering:optimizeQuality; fill-rule:evenodd; clip-rule:evenodd"
viewBox="0 0 12105.64 4907.52"
 xmlns:xlink="http://www.w3.org/1999/xlink"
 xmlns:xodm="http://www.corel.com/coreldraw/odm/2003">
 <defs>
  <style type="text/css">
   <![CDATA[
    .str0 {stroke:white;stroke-width:88.35;stroke-linecap:round;stroke-linejoin:round;stroke-miterlimit:2.61313}
    .str1 {stroke:#F2D250;stroke-width:56.84;stroke-linecap:round;stroke-linejoin:round;stroke-miterlimit:2.61313}
    .fil2 {fill:none}
    .fil8 {fill:black}
    .fil12 {fill:#006E6A}
    .fil0 {fill:#009E9A}
    .fil5 {fill:#8EDCC4}
    .fil9 {fill:#BD353B}
    .fil7 {fill:#F2D250}
    .fil1 {fill:#FCDA55}
    .fil4 {fill:red}
    .fil3 {fill:white}
    .fil6 {fill:black;fill-rule:nonzero}
    .fil11 {fill:#333333;fill-rule:nonzero}
    .fil10 {fill:url(#id0)}
   ]]>
  </style>
  <radialGradient id="id0" gradientUnits="userSpaceOnUse" gradientTransform="matrix(1.09705 -0.871071 0.871093 1.09705 -3457 1947)" cx="2644.17" cy="3673.92" r="172.51" fx="2644.17" fy="3673.92">
   <stop offset="0" style="stop-opacity:1; stop-color:#D6E6E5"/>
   <stop offset="1" style="stop-opacity:1; stop-color:#F7CA16"/>
  </radialGradient>
 </defs>
 <g id="Layer_x0020_1">
  <metadata id="CorelCorpID_0Corel-Layer"/>
  <path class="fil0" d="M5732.32 3332.36l-358.2 200.61c-58.58,33.36 -115.88,61.56 -168.39,134.16 -114.17,157.83 -75.43,346.28 4.44,447.36 90.93,115.07 233.27,173.06 381.01,139.43 17.36,-3.95 39.04,-12.67 53.92,-14.64 25.91,28.05 44,51.2 79.74,76.05 108.72,75.6 239.94,89.54 353.82,44.08 153.37,-61.23 251.39,-210.09 237.91,-381.07 -6.95,-88.14 -41.49,-142.44 -75.07,-201.45l-203.68 -363c-48.64,18.48 -9.84,190.66 -62.98,192.59 -105.12,1.81 -198.48,-25.38 -283.19,-78.99 -44.73,-29.55 72.73,-153.63 40.67,-195.14z"/>
  <path class="fil1" d="M6277.52 2562.13c93.36,298.69 131.97,264.87 -196.78,172.39 -328.76,-92.48 -313.44,-43.5 -78.05,-249.7 235.39,-206.2 181.47,-221.37 274.83,77.32z"/>
  <rect class="fil0" transform="matrix(1.23999 0.348819 -0.348819 1.23999 5820.08 2694.22)" width="406.53" height="409.28" rx="43.95" ry="43.95"/>
  <path class="fil1" d="M5722.21 3253.19l395.11 111.15c29.97,8.43 47.59,39.85 39.16,69.82l-42.16 149.88c-8.43,29.97 -39.85,47.6 -69.82,39.16l-395.11 -111.15c-29.97,-8.43 -47.6,-39.85 -39.16,-69.82l42.16 -149.87c8.43,-29.98 39.85,-47.6 69.82,-39.16z"/>
  <polygon class="fil0" points="5651.67,3094.48 5151.16,3371.89 5542.65,3482.02 "/>
  <polygon class="fil0" points="6259.46,3265.45 6541.92,3763.13 6150.44,3653 "/>
  <g>
   <path class="fil2 str0" d="M5530.33 3709.59l147.5 -61.78c0,0 -88.12,225.13 -70.11,219.87 18,-5.26 135.54,-114.72 135.54,-114.72 0,0 -54.81,224.18 -44.04,318.09 0,0 57.01,-19.08 160.74,-299.72 0,0 78.17,81.88 84.39,133.21 0,0 62.27,-133.26 36.44,-173.58l43.19 8.02c0,0 -1.85,-118.25 -56.27,-203.79 -120.68,-189.67 -377.75,52.96 -437.37,174.39z"/>
   <path id="_1" class="fil3" d="M5530.33 3709.59l147.5 -61.78c0,0 -88.12,225.13 -70.11,219.87 18,-5.26 135.54,-114.72 135.54,-114.72 0,0 -54.81,224.18 -44.04,318.09 0,0 57.01,-19.08 160.74,-299.72 0,0 78.17,81.88 84.39,133.21 0,0 62.27,-133.26 36.44,-173.58l43.19 8.02c0,0 -1.85,-118.25 -56.27,-203.79 -120.68,-189.67 -377.75,52.96 -437.37,174.39z"/>
  </g>
  <path class="fil4" d="M5530.33 3709.59l147.5 -61.78c0,0 -88.12,225.13 -70.11,219.87 18,-5.26 135.54,-114.72 135.54,-114.72 0,0 -54.81,224.18 -44.04,318.09 0,0 57.01,-19.08 160.74,-299.72 0,0 78.17,81.88 84.39,133.21 0,0 62.27,-133.26 36.44,-173.58l43.19 8.02c0,0 -1.85,-118.25 -56.27,-203.79 -120.68,-189.67 -377.75,52.96 -437.37,174.39z"/>
  <g>
   <path class="fil5" d="M10964.51 2888.5c21.74,0 40.5,12.75 49.22,31.17l0 0 0.02 0.06c1.04,2.2 1.93,4.48 2.67,6.83l350.24 894.83c2.3,4.16 4.08,8.64 5.23,13.38l0.01 0.02 -0 0c1.01,4.14 1.55,8.48 1.55,12.94 0,28.04 -21.21,51.13 -48.47,54.09l0 0 -0.03 0c-1.94,0.21 -3.92,0.32 -5.92,0.32 -1.99,0 -3.95,-0.11 -5.88,-0.32l-710.55 0.32c-30.05,0 -54.42,-24.37 -54.42,-54.42 0,-8.54 1.97,-16.61 5.47,-23.8l358.21 -894.87c1.15,-4.37 2.83,-8.53 4.97,-12.4l0 -0.02 0 0c9.27,-16.77 27.14,-28.14 47.66,-28.14z"/>
   <path class="fil6" d="M10949.79 3390.7c0,-6.1 4.94,-11.04 11.04,-11.04 6.1,0 11.04,4.95 11.04,11.04l0 992.52c0,6.1 -4.95,11.04 -11.04,11.04 -6.1,0 -11.04,-4.94 -11.04,-11.04l0 -992.52z"/>
   <path class="fil6" d="M11128.79 3548.19c4.67,-3.91 11.62,-3.29 15.53,1.38 3.91,4.67 3.29,11.62 -1.38,15.53l-171.82 143.47c-4.67,3.91 -11.62,3.28 -15.53,-1.38 -3.91,-4.67 -3.29,-11.62 1.38,-15.53l171.82 -143.47z"/>
   <path class="fil6" d="M10810.12 3492.54c-4.67,-3.91 -5.29,-10.86 -1.38,-15.53 3.91,-4.67 10.86,-5.29 15.53,-1.38l142.32 118.85c4.67,3.91 5.29,10.86 1.38,15.53 -3.91,4.67 -10.86,5.29 -15.53,1.38l-142.32 -118.85z"/>
   <path class="fil6" d="M10809.26 3708.91c-4.67,-3.91 -5.29,-10.86 -1.38,-15.53 3.91,-4.67 10.86,-5.29 15.53,-1.38l142.33 118.85c4.66,3.91 5.29,10.86 1.38,15.53 -3.91,4.67 -10.86,5.29 -15.53,1.38l-142.32 -118.85z"/>
  </g>
  <g>
   <path class="fil6" d="M730.72 3277.27c2.7,-16.63 18.39,-27.92 35.02,-25.23 16.63,2.7 27.92,18.39 25.22,35.02l-109.2 669.92c-2.07,12.71 -32.57,59.17 -93.81,81.15 -32.56,11.69 -74.61,18.09 -126.49,10.99 -16.69,-2.24 -28.41,-17.61 -26.17,-34.31 2.24,-16.7 17.61,-28.42 34.31,-26.18 41.04,5.62 73.34,0.89 97.8,-7.88 36.97,-13.27 53.5,-29.8 54.12,-33.58l109.2 -669.92z"/>
   <path class="fil6" d="M807.55 3339.01c-6.47,-15.58 0.92,-33.45 16.49,-39.92 15.58,-6.47 33.46,0.92 39.92,16.49l265.03 632.93c0.89,2.13 15.68,7.83 45.01,10.44l0 -0.12c21.94,1.94 49.51,-0.67 81.9,-12.61 15.84,-5.81 33.4,2.33 39.2,18.17 5.81,15.84 -2.33,33.4 -18.17,39.2 -42.02,15.5 -78.63,18.8 -108.19,16.19l0.01 -0.12c-54.99,-4.87 -90.74,-34.73 -96.18,-47.73l-265.04 -632.93z"/>
   <path class="fil7" d="M1056.04 2538.67c701.96,152.88 736.49,32.67 232.07,520.59 73.49,723.98 196.94,720.12 -416.7,384.6 -656.53,294.57 -614.77,412.41 -489.6,-282.88 -479.25,-541.93 -576.9,-465.25 114.11,-559.43 360.34,-629.5 258.22,-699.94 560.12,-62.87z"/>
   <ellipse class="fil8" cx="516.34" cy="2833.91" rx="37.12" ry="43.78"/>
   <ellipse class="fil8" cx="1024.48" cy="2839.88" rx="37.12" ry="43.78"/>
   <path class="fil6" d="M573.57 2996.22c-4.54,-12.67 2.06,-26.64 14.73,-31.18 12.67,-4.54 26.64,2.06 31.18,14.73 0.14,0.39 47.88,137.24 170.77,131.1 121.41,-6.06 144.62,-142.75 144.69,-143.15 2.43,-13.26 15.15,-22.03 28.4,-19.6 13.25,2.43 22.03,15.15 19.6,28.4 -0.09,0.5 -29.64,175.09 -190.4,183.12 -159.27,7.95 -218.81,-162.94 -218.98,-163.42z"/>
  </g>
  <g>
   <path class="fil5" d="M9710.68 2759.89c-408.78,233.59 -257.4,865.56 361.6,836.2 -229.26,368.56 -834.44,270.25 -935.63,-140.12 -101.36,-420.04 193.16,-718.71 574.03,-696.08z"/>
   <ellipse class="fil8" transform="matrix(0.855977 -0.0909129 0.0909129 0.855977 9186.23 3322.95)" rx="21.34" ry="25.17"/>
   <ellipse class="fil8" transform="matrix(0.855977 -0.0909129 0.0909129 0.855977 9436.59 3299.33)" rx="21.34" ry="25.17"/>
   <path class="fil6" d="M9222.88 3399.83c-2.9,-6 -0.38,-13.22 5.62,-16.11 6,-2.89 13.22,-0.37 16.11,5.62 0.09,0.18 30.73,65.03 90.89,55.59 59.42,-9.33 63.7,-77.8 63.72,-78 0.5,-6.65 6.3,-11.63 12.95,-11.13 6.65,0.5 11.63,6.3 11.13,12.95 -0.02,0.25 -5.43,87.7 -84.12,100.06 -77.95,12.23 -116.18,-68.74 -116.29,-68.97z"/>
  </g>
  <g>
   <path class="fil7" d="M10291.18 2767.05c276.25,115.12 299.39,68.43 56.21,230.69 -23.99,302.19 26.89,309.84 -199.52,126.47 -291.08,71.66 -282.77,123.07 -179.51,-152.52 -155.9,-257.92 -201.65,-233.79 88.57,-220.74 194.72,-231.05 158.14,-267.55 234.25,16.1z"/>
   <ellipse class="fil8" transform="matrix(0.712906 0.130006 -0.130006 0.712906 10047.9 2847.71)" rx="21.34" ry="25.17"/>
   <ellipse class="fil8" transform="matrix(0.712906 0.130006 -0.130006 0.712906 10255.7 2888.13)" rx="21.34" ry="25.17"/>
   <path class="fil6" d="M10059.25 2918.51c-0.91,-5.53 2.84,-10.76 8.37,-11.68 5.53,-0.91 10.77,2.84 11.68,8.37 0.03,0.17 9.36,59.82 60.19,66.49 50.21,6.59 69.94,-47.69 69.99,-47.85 1.99,-5.25 7.85,-7.89 13.11,-5.91 5.25,1.98 7.89,7.85 5.91,13.1 -0.07,0.2 -25.23,69.54 -91.72,60.81 -65.86,-8.64 -77.49,-83.13 -77.53,-83.34z"/>
  </g>
  <path class="fil5" d="M11272.24 1634.06c239.11,0 432.95,193.84 432.95,432.95 0,239.11 -193.84,432.95 -432.95,432.95 -239.11,0 -432.95,-193.84 -432.95,-432.95 0,-239.11 193.84,-432.95 432.95,-432.95zm-416.93 803.25c12.88,-12.88 33.76,-12.88 46.64,0 12.87,12.87 12.87,33.76 0,46.63l-172.37 172.37c-12.87,12.87 -33.76,12.87 -46.63,0 -12.88,-12.88 -12.88,-33.76 0,-46.64l172.37 -172.37zm959.6 -959.6c12.87,-12.87 33.76,-12.87 46.63,0 12.88,12.88 12.88,33.76 0,46.64l-172.37 172.37c-12.88,12.87 -33.76,12.87 -46.64,0 -12.88,-12.88 -12.88,-33.76 0,-46.64l172.37 -172.37zm-172.37 1006.24c-12.88,-12.87 -12.88,-33.76 0,-46.63 12.87,-12.88 33.76,-12.88 46.64,0l172.37 172.37c12.88,12.88 12.88,33.76 0,46.64 -12.87,12.87 -33.76,12.87 -46.63,0l-172.37 -172.37zm-959.6 -959.6c-12.88,-12.88 -12.88,-33.76 0,-46.64 12.87,-12.87 33.76,-12.87 46.63,0l172.37 172.37c12.87,12.87 12.87,33.76 0,46.64 -12.88,12.87 -33.76,12.87 -46.64,0l-172.37 -172.37zm1145.96 575.65c-18.21,0 -32.97,-14.77 -32.97,-32.98 0,-18.21 14.77,-32.97 32.97,-32.97l243.77 0c18.21,0 32.97,14.77 32.97,32.97 0,18.21 -14.77,32.98 -32.97,32.98l-243.77 0zm-1357.08 0c-18.21,0 -32.98,-14.77 -32.98,-32.98 0,-18.21 14.77,-32.97 32.98,-32.97l243.77 0c18.21,0 32.98,14.77 32.98,32.97 0,18.21 -14.77,32.98 -32.98,32.98l-243.77 0zm767.45 523.68c0,-18.21 14.77,-32.97 32.97,-32.97 18.21,0 32.98,14.77 32.98,32.97l0 243.77c0,18.21 -14.77,32.97 -32.98,32.97 -18.21,0 -32.97,-14.77 -32.97,-32.97l0 -243.77zm0 -1357.08c0,-18.21 14.77,-32.98 32.97,-32.98 18.21,0 32.98,14.77 32.98,32.98l0 243.77c0,18.21 -14.77,32.98 -32.98,32.98 -18.21,0 -32.97,-14.77 -32.97,-32.98l0 -243.77zm-213.73 744.97c18.67,-3.16 36.82,12.13 40.55,34.14 3.73,22.02 -8.38,42.43 -27.05,45.59 -18.66,3.16 -36.82,-12.13 -40.55,-34.14 -3.73,-22.02 8.38,-42.43 27.05,-45.59zm463.65 -72.93c18.67,-3.16 36.82,12.13 40.55,34.14 3.73,22.02 -8.38,42.43 -27.05,45.59 -18.66,3.16 -36.82,-12.13 -40.55,-34.14 -3.73,-22.02 8.38,-42.43 27.05,-45.59zm-379.74 251.77c-6.09,-10.84 -2.23,-24.57 8.61,-30.66 10.84,-6.09 24.58,-2.23 30.66,8.6 0.18,0.34 64.76,117.59 175.73,93.05 109.62,-24.25 109.68,-152.29 109.68,-152.66 0.17,-12.45 10.4,-22.4 22.84,-22.23 12.45,0.17 22.4,10.4 22.23,22.84 -0,0.47 0.01,164.01 -145.15,196.11 -143.8,31.8 -224.37,-114.63 -224.61,-115.05z"/>
  <g>
   <path class="fil2 str1" d="M2070.12 2527.03c6.51,12.27 10.21,26.26 10.21,41.12 0,48.48 -39.3,87.78 -87.78,87.78 -48.48,0 -87.79,-39.3 -87.79,-87.78 0,-29.3 14.36,-55.25 36.44,-71.2 -42.54,-12.39 -73.61,-51.65 -73.61,-98.17 0,-51.54 38.14,-94.17 87.73,-101.22 -18.66,-22.39 -29.9,-51.18 -29.9,-82.61 0,-71.3 57.8,-129.1 129.1,-129.1 9.96,0 19.64,1.13 28.95,3.27 -0.71,-5.46 -1.07,-11.03 -1.07,-16.69 0,-71.3 57.8,-129.1 129.1,-129.1 17.98,0 35.09,3.67 50.64,10.32 -0.02,-1.03 -0.04,-2.05 -0.04,-3.08 0,-71.3 57.8,-129.1 129.1,-129.1 40.75,0 77.09,18.89 100.74,48.39 -0.38,-5.06 -0.57,-10.17 -0.57,-15.33 0,-111.8 90.63,-202.43 202.43,-202.43 78.29,0 146.21,44.47 179.87,109.53 1.32,-0.03 2.63,-0.05 3.95,-0.05 111.78,0 202.41,90.63 202.41,202.43 0,111.78 -90.63,202.41 -202.41,202.41 -34.42,0 -66.82,-8.59 -95.2,-23.74 -22.47,87.3 -101.72,151.8 -196.03,151.8 -56.59,0 -107.74,-23.23 -144.48,-60.66 0.09,1.96 0.14,3.94 0.14,5.93 0,77 -69.41,139.42 -155.03,139.42 -29.91,0 -57.84,-7.62 -81.52,-20.82 8.75,16.46 13.71,35.25 13.71,55.19 0,65.02 -52.71,117.73 -117.73,117.73 -10.86,0 -21.37,-1.48 -31.35,-4.23z"/>
   <path id="_1_0" class="fil3" d="M2070.12 2527.03c6.51,12.27 10.21,26.26 10.21,41.12 0,48.48 -39.3,87.78 -87.78,87.78 -48.48,0 -87.79,-39.3 -87.79,-87.78 0,-29.3 14.36,-55.25 36.44,-71.2 -42.54,-12.39 -73.61,-51.65 -73.61,-98.17 0,-51.54 38.14,-94.17 87.73,-101.22 -18.66,-22.39 -29.9,-51.18 -29.9,-82.61 0,-71.3 57.8,-129.1 129.1,-129.1 9.96,0 19.64,1.13 28.95,3.27 -0.71,-5.46 -1.07,-11.03 -1.07,-16.69 0,-71.3 57.8,-129.1 129.1,-129.1 17.98,0 35.09,3.67 50.64,10.32 -0.02,-1.03 -0.04,-2.05 -0.04,-3.08 0,-71.3 57.8,-129.1 129.1,-129.1 40.75,0 77.09,18.89 100.74,48.39 -0.38,-5.06 -0.57,-10.17 -0.57,-15.33 0,-111.8 90.63,-202.43 202.43,-202.43 78.29,0 146.21,44.47 179.87,109.53 1.32,-0.03 2.63,-0.05 3.95,-0.05 111.78,0 202.41,90.63 202.41,202.43 0,111.78 -90.63,202.41 -202.41,202.41 -34.42,0 -66.82,-8.59 -95.2,-23.74 -22.47,87.3 -101.72,151.8 -196.03,151.8 -56.59,0 -107.74,-23.23 -144.48,-60.66 0.09,1.96 0.14,3.94 0.14,5.93 0,77 -69.41,139.42 -155.03,139.42 -29.91,0 -57.84,-7.62 -81.52,-20.82 8.75,16.46 13.71,35.25 13.71,55.19 0,65.02 -52.71,117.73 -117.73,117.73 -10.86,0 -21.37,-1.48 -31.35,-4.23z"/>
  </g>
  <path class="fil6" d="M2905.99 3475.96l216.56 0 0 137.08 -227.93 0 0 -137.08 11.37 0zm109.07 25.96c4.47,15.34 6.51,30.25 6.36,44.77 -0.14,13.91 -2.31,27.37 -6.29,40.39l84.68 0 0 -85.16 -84.75 0zm-24.26 85.16c5.07,-13.11 7.84,-26.67 7.98,-40.7 0.14,-14.12 -2.37,-28.92 -7.87,-44.47l-73.55 0 0 85.16 73.44 0z"/>
  <path class="fil6" d="M3959.08 3475.96l216.56 0 0 137.08 -227.93 0 0 -137.08 11.37 0zm109.07 25.96c4.47,15.34 6.51,30.25 6.37,44.77 -0.14,13.91 -2.31,27.37 -6.3,40.39l84.69 0 0 -85.16 -84.76 0zm-24.26 85.16c5.07,-13.11 7.84,-26.67 7.98,-40.7 0.14,-14.12 -2.37,-28.92 -7.87,-44.47l-73.55 0 0 85.16 73.44 0z"/>
  <path class="fil0" d="M4161.6 3110.77l866 0c12.72,0 23.12,10.4 23.12,23.12l0 586.82c0,12.72 -10.4,23.12 -23.12,23.12l-135.35 0c1.37,-5.06 2.11,-10.38 2.11,-15.86 0,-33.4 -27.08,-60.48 -60.48,-60.48 -33.4,0 -60.48,27.08 -60.48,60.48 0,5.48 0.74,10.8 2.11,15.86l-369.43 0c1.37,-5.06 2.11,-10.38 2.11,-15.86 0,-33.4 -27.08,-60.48 -60.48,-60.48 -33.4,0 -60.48,27.08 -60.48,60.48 0,5.48 0.74,10.8 2.11,15.86l-127.75 0c-12.72,0 -23.12,-10.4 -23.12,-23.12l0 -586.82c0,-12.72 10.4,-23.12 23.12,-23.12z"/>
  <g>
   <path class="fil6" d="M4428.02 3376.31c-1.63,-7.66 3.27,-15.19 10.93,-16.82 7.66,-1.62 15.19,3.27 16.82,10.93 5.48,25.62 23.58,45.14 47.72,58.13 22.19,11.94 49.31,18.4 76.73,19.15 27.49,0.75 55.12,-4.22 78.26,-15.13 25.67,-12.12 45.69,-31.67 53.15,-58.89 2.05,-7.54 9.83,-11.99 17.37,-9.93 7.54,2.05 11.99,9.83 9.93,17.37 -9.89,36.1 -35.59,61.62 -68.36,77.09 -27.17,12.82 -59.29,18.66 -91.01,17.8 -31.81,-0.87 -63.43,-8.45 -89.49,-22.47 -31.15,-16.75 -54.63,-42.61 -62.03,-77.22z"/>
   <g>
    <path class="fil6" d="M4386.27 3264.69c-0.3,7.81 -6.89,13.9 -14.7,13.59 -7.81,-0.3 -13.9,-6.89 -13.6,-14.7 1.08,-26.66 17.71,-44.59 39.11,-53.24 9,-3.64 18.94,-5.57 28.86,-5.74 9.95,-0.17 19.93,1.43 28.98,4.86 20.88,7.9 37.13,24.96 38.87,51.71 0.49,7.81 -5.45,14.55 -13.26,15.04 -7.81,0.49 -14.55,-5.45 -15.04,-13.26 -0.9,-13.87 -9.5,-22.78 -20.56,-26.96 -5.76,-2.18 -12.14,-3.2 -18.55,-3.09 -6.43,0.11 -12.89,1.37 -18.76,3.75 -11.71,4.73 -20.79,14.22 -21.35,28.04z"/>
    <path class="fil6" d="M4701.63 3264.69c-0.3,7.81 -6.89,13.9 -14.71,13.59 -7.81,-0.3 -13.9,-6.89 -13.6,-14.7 1.08,-26.66 17.72,-44.59 39.12,-53.24 9,-3.64 18.94,-5.57 28.86,-5.74 9.95,-0.17 19.93,1.43 28.98,4.86 20.88,7.9 37.13,24.96 38.87,51.71 0.49,7.81 -5.45,14.55 -13.26,15.04 -7.81,0.49 -14.55,-5.45 -15.04,-13.26 -0.9,-13.87 -9.5,-22.78 -20.56,-26.96 -5.76,-2.18 -12.15,-3.2 -18.55,-3.09 -6.43,0.11 -12.89,1.37 -18.76,3.75 -11.71,4.73 -20.79,14.22 -21.35,28.04z"/>
   </g>
  </g>
  <path class="fil7" d="M4347.72 3575.01c84.48,0 152.96,68.48 152.96,152.96 0,84.48 -68.48,152.96 -152.96,152.96 -84.47,0 -152.95,-68.48 -152.95,-152.96 0,-84.48 68.48,-152.96 152.95,-152.96zm0 91.6c33.89,0 61.36,27.47 61.36,61.36 0,33.89 -27.47,61.36 -61.36,61.36 -33.89,0 -61.36,-27.47 -61.36,-61.36 0,-33.89 27.47,-61.36 61.36,-61.36z"/>
  <path class="fil7" d="M4833.89 3575.01c84.48,0 152.96,68.48 152.96,152.96 0,84.48 -68.48,152.96 -152.96,152.96 -84.48,0 -152.96,-68.48 -152.96,-152.96 0,-84.48 68.48,-152.96 152.96,-152.96zm0 91.6c33.89,0 61.36,27.47 61.36,61.36 0,33.89 -27.47,61.36 -61.36,61.36 -33.89,0 -61.36,-27.47 -61.36,-61.36 0,-33.89 27.47,-61.36 61.36,-61.36z"/>
  <path class="fil9" d="M3229.7 2599.36l589.83 0c12.72,0 23.12,10.41 23.12,23.12l0 586.82c0,12.71 -10.41,23.12 -23.12,23.12l-589.83 0c-12.71,0 -23.12,-10.4 -23.12,-23.12l0 -586.82c0,-12.72 10.4,-23.12 23.12,-23.12z"/>
  <path class="fil6" d="M3379.63 2901.93c-1.54,-7.29 3.11,-14.46 10.41,-16 7.29,-1.55 14.46,3.11 16.01,10.4 5.22,24.39 22.44,42.97 45.42,55.34 21.13,11.36 46.94,17.52 73.04,18.23 26.17,0.71 52.48,-4.02 74.49,-14.41 24.44,-11.54 43.49,-30.15 50.59,-56.05 1.95,-7.18 9.36,-11.41 16.54,-9.46 7.18,1.95 11.41,9.36 9.45,16.53 -9.42,34.37 -33.88,58.66 -65.07,73.38 -25.86,12.2 -56.43,17.76 -86.64,16.94 -30.28,-0.83 -60.38,-8.05 -85.19,-21.39 -29.65,-15.95 -52,-40.56 -59.05,-73.51z"/>
  <path class="fil6" d="M3339.89 2795.68c-0.29,7.44 -6.56,13.23 -14,12.94 -7.44,-0.29 -13.23,-6.56 -12.94,-14 1.03,-25.38 16.86,-42.44 37.23,-50.68 8.57,-3.47 18.03,-5.31 27.47,-5.47 9.47,-0.16 18.97,1.36 27.58,4.63 19.88,7.52 35.35,23.76 37,49.23 0.47,7.44 -5.19,13.85 -12.62,14.32 -7.44,0.47 -13.85,-5.19 -14.32,-12.62 -0.85,-13.2 -9.04,-21.68 -19.57,-25.67 -5.48,-2.08 -11.56,-3.05 -17.66,-2.94 -6.12,0.1 -12.27,1.31 -17.86,3.57 -11.15,4.51 -19.79,13.53 -20.33,26.69z"/>
  <path class="fil6" d="M3640.08 2795.68c-0.29,7.44 -6.56,13.23 -14,12.94 -7.44,-0.29 -13.23,-6.56 -12.94,-14 1.03,-25.38 16.86,-42.44 37.23,-50.68 8.57,-3.47 18.03,-5.31 27.47,-5.47 9.47,-0.16 18.97,1.36 27.58,4.63 19.88,7.52 35.35,23.76 37,49.23 0.47,7.44 -5.19,13.85 -12.63,14.32 -7.44,0.47 -13.85,-5.19 -14.32,-12.62 -0.85,-13.2 -9.04,-21.68 -19.57,-25.67 -5.48,-2.08 -11.56,-3.05 -17.66,-2.94 -6.12,0.1 -12.27,1.31 -17.86,3.57 -11.15,4.51 -19.79,13.53 -20.33,26.69z"/>
  <path class="fil1" d="M3099.98 3110.77l866.01 0c12.72,0 23.12,10.4 23.12,23.12l0 586.82c0,12.72 -10.4,23.12 -23.12,23.12l-126.86 0c1.32,-4.97 2.03,-10.18 2.03,-15.57 0,-33.4 -27.08,-60.48 -60.47,-60.48 -33.4,0 -60.48,27.08 -60.48,60.48 0,5.38 0.71,10.59 2.03,15.57l-374.83 0c1.32,-4.97 2.03,-10.18 2.03,-15.57 0,-33.4 -27.08,-60.48 -60.48,-60.48 -33.4,0 -60.48,27.08 -60.48,60.48 0,5.38 0.71,10.59 2.03,15.57l-130.52 0c-12.72,0 -23.12,-10.4 -23.12,-23.12l0 -586.82c0,-12.72 10.4,-23.12 23.12,-23.12z"/>
  <g>
   <path class="fil6" d="M3377.44 3376.31c-1.62,-7.66 3.27,-15.19 10.93,-16.82 7.66,-1.62 15.19,3.27 16.82,10.93 5.48,25.62 23.58,45.14 47.72,58.13 22.19,11.94 49.31,18.4 76.73,19.15 27.49,0.75 55.12,-4.22 78.26,-15.13 25.67,-12.12 45.69,-31.67 53.15,-58.89 2.05,-7.54 9.83,-11.99 17.37,-9.93 7.54,2.05 11.99,9.83 9.94,17.37 -9.9,36.1 -35.59,61.62 -68.36,77.09 -27.17,12.82 -59.28,18.66 -91.01,17.8 -31.81,-0.87 -63.43,-8.45 -89.49,-22.47 -31.14,-16.75 -54.63,-42.61 -62.03,-77.22z"/>
   <g>
    <path class="fil6" d="M3335.7 3264.69c-0.3,7.81 -6.89,13.9 -14.71,13.59 -7.81,-0.3 -13.9,-6.89 -13.6,-14.7 1.08,-26.66 17.71,-44.59 39.12,-53.24 9,-3.64 18.94,-5.57 28.86,-5.74 9.95,-0.17 19.93,1.43 28.98,4.86 20.88,7.9 37.13,24.96 38.87,51.71 0.49,7.81 -5.45,14.55 -13.26,15.04 -7.81,0.49 -14.55,-5.45 -15.04,-13.26 -0.9,-13.87 -9.5,-22.78 -20.56,-26.96 -5.76,-2.18 -12.14,-3.2 -18.55,-3.09 -6.43,0.11 -12.89,1.37 -18.76,3.75 -11.71,4.73 -20.79,14.22 -21.35,28.04z"/>
    <path class="fil6" d="M3651.05 3264.69c-0.3,7.81 -6.89,13.9 -14.71,13.59 -7.81,-0.3 -13.9,-6.89 -13.59,-14.7 1.08,-26.66 17.71,-44.59 39.11,-53.24 9,-3.64 18.94,-5.57 28.86,-5.74 9.95,-0.17 19.93,1.43 28.98,4.86 20.88,7.9 37.13,24.96 38.87,51.71 0.49,7.81 -5.45,14.55 -13.26,15.04 -7.81,0.49 -14.55,-5.45 -15.04,-13.26 -0.9,-13.87 -9.5,-22.78 -20.56,-26.96 -5.76,-2.18 -12.15,-3.2 -18.55,-3.09 -6.43,0.11 -12.89,1.37 -18.76,3.75 -11.71,4.73 -20.79,14.22 -21.35,28.04z"/>
   </g>
  </g>
  <path class="fil0" d="M3289.87 3575.01c84.48,0 152.96,68.48 152.96,152.96 0,84.48 -68.48,152.96 -152.96,152.96 -84.48,0 -152.96,-68.48 -152.96,-152.96 0,-84.48 68.48,-152.96 152.96,-152.96zm0 91.6c33.89,0 61.36,27.47 61.36,61.36 0,33.89 -27.47,61.36 -61.36,61.36 -33.89,0 -61.36,-27.47 -61.36,-61.36 0,-33.89 27.47,-61.36 61.36,-61.36z"/>
  <path class="fil0" d="M3780.76 3575.01c84.48,0 152.96,68.48 152.96,152.96 0,84.48 -68.48,152.96 -152.96,152.96 -84.48,0 -152.96,-68.48 -152.96,-152.96 0,-84.48 68.48,-152.96 152.96,-152.96zm0 91.6c33.89,0 61.36,27.47 61.36,61.36 0,33.89 -27.47,61.36 -61.36,61.36 -33.89,0 -61.36,-27.47 -61.36,-61.36 0,-33.89 27.47,-61.36 61.36,-61.36z"/>
  <polygon class="fil0" points="1733.21,3627.2 1506.81,3897.01 1632.56,3897.01 "/>
  <path class="fil0" d="M1783.43 3634.2l488.75 0c58.97,-87.03 71.27,-427.04 18.41,-544.94l1.63 -269.22 640.03 0 0 937.91 -236.2 0 0 139.07 -1014.95 0 102.33 -262.81zm883.03 -733.13l93.92 0c26.58,0 48.33,21.75 48.33,48.34l0 277.01c0,26.58 -21.75,48.34 -48.33,48.34l-271.14 0c-26.58,0 -48.33,-21.75 -48.33,-48.34l0 -99.8c0,-124.05 101.5,-225.55 225.55,-225.55z"/>
  <path class="fil0" d="M1816.01 3092.58c-112.69,30.92 -195.49,134.08 -195.49,256.58 0,119.34 78.58,220.33 186.82,254.04 34.07,-75.96 53.93,-167.28 53.93,-265.52 0,-89.59 -16.52,-173.43 -45.26,-245.1z"/>
  <circle class="fil10" cx="2644.17" cy="3673.92" r="256.67"/>
  <path class="fil1" d="M2294.68 2630.09l649.76 -16.88c17.12,-0.44 28.56,14.22 31.15,31.15l17.61 115.19c2.58,16.93 -14.03,30.93 -31.15,31.15l-692.32 8.81c-17.12,0.22 -35.03,-14.46 -31.15,-31.15l24.95 -107.11c3.89,-16.69 14.03,-30.7 31.15,-31.15z"/>
  <path class="fil1" d="M1853.7 2820.26l69.58 269 -55.76 0c27.76,70.06 43.98,154.5 43.98,245.41 0,94.73 -17.6,182.45 -47.54,254.18l0 13.28 383.58 0c52.29,-176.99 52.51,-347.97 0,-512.87l-183.42 0 58.39 -269.71c12.62,-5.09 21.59,-17.48 21.59,-31.88 0,-18.89 -15.45,-34.34 -34.35,-34.34l-245.18 0c-18.89,0 -34.34,15.45 -34.34,34.34 0,15.1 9.87,28.01 23.48,32.58z"/>
  <path class="fil0" d="M1868.24 3697.65c65.03,0 117.74,52.71 117.74,117.74 0,65.03 -52.72,117.74 -117.74,117.74 -65.03,0 -117.74,-52.72 -117.74,-117.74 0,-65.03 52.72,-117.74 117.74,-117.74zm0 70.51c26.08,0 47.23,21.15 47.23,47.23 0,26.08 -21.15,47.23 -47.23,47.23 -26.09,0 -47.23,-21.15 -47.23,-47.23 0,-26.09 21.15,-47.23 47.23,-47.23z"/>
  <path class="fil0" d="M2140.35 3697.65c65.03,0 117.74,52.71 117.74,117.74 0,65.03 -52.72,117.74 -117.74,117.74 -65.03,0 -117.74,-52.72 -117.74,-117.74 0,-65.03 52.72,-117.74 117.74,-117.74zm0 70.51c26.09,0 47.23,21.15 47.23,47.23 0,26.08 -21.15,47.23 -47.23,47.23 -26.08,0 -47.23,-21.15 -47.23,-47.23 0,-26.09 21.15,-47.23 47.23,-47.23z"/>
  <g>
   <path class="fil1" d="M8018.06 3370.85l153.6 -153.24c44.96,-45.55 90.08,-86.06 119.41,-165.92 63.77,-173.62 -20.09,-335.9 -119.08,-407.74 -112.7,-81.8 -257.7,-98.21 -384.09,-29.48 -14.84,8.07 -32.42,21.61 -45.52,27.25 -30.9,-18.98 -53.39,-35.48 -92.44,-49 -118.81,-41.15 -242.33,-20.15 -334.73,50.68 -124.44,95.4 -175.75,256.66 -119.47,409.46 29.01,78.77 74.55,119.52 120.41,164.83l152.75 152.67c39.53,-29.53 83.99,-52.8 131.9,-68.43l-179.95 -179.55c-36.66,-38.18 -69.48,-62.07 -91.2,-118.63 -71.15,-185.28 127.87,-356.43 301.47,-263.8 53.15,28.36 84.75,78.51 111.26,97.48 9.22,-3.65 45.77,-42.78 54.16,-51.33 175.77,-179.02 437.45,5.45 361.01,216.09 -19.93,54.92 -62.91,90.51 -93.23,120.61l-179.18 179.02c48.32,15.72 93.13,39.21 132.91,69.04z"/>
   <path class="fil0" d="M8110.38 4012.97l154.66 155.02c45.55,44.96 86.06,90.08 165.92,119.41 173.62,63.77 335.9,-20.09 407.74,-119.08 81.8,-112.7 98.21,-257.7 29.48,-384.09 -8.07,-14.85 -21.61,-32.42 -27.25,-45.52 18.98,-30.9 35.48,-53.39 49,-92.44 41.15,-118.81 20.15,-242.33 -50.68,-334.73 -95.4,-124.44 -256.65,-175.75 -409.46,-119.47 -78.77,29.01 -119.52,74.55 -164.83,120.41l-152.9 152.98c29.39,39.71 52.51,84.33 67.93,132.4l180.28 -180.68c38.18,-36.66 62.07,-69.48 118.63,-91.2 185.28,-71.15 356.43,127.87 263.8,301.47 -28.36,53.15 -78.51,84.75 -97.48,111.26 3.65,9.22 42.78,45.76 51.33,54.16 179.02,175.77 -5.45,437.45 -216.09,361.01 -54.92,-19.93 -90.51,-62.91 -120.62,-93.23l-180.44 -180.6c-15.72,48.32 -39.2,93.13 -69.04,132.92z"/>
   <path class="fil1" d="M7469.89 4106.51l-155.23 154.86c-44.96,45.55 -90.08,86.06 -119.41,165.92 -63.77,173.62 20.09,335.9 119.08,407.74 112.7,81.8 257.7,98.21 384.09,29.48 14.84,-8.07 32.42,-21.61 45.52,-27.25 30.9,18.98 53.39,35.47 92.44,49 118.81,41.14 242.33,20.15 334.73,-50.68 124.44,-95.4 175.75,-256.65 119.47,-409.46 -29.01,-78.77 -74.55,-119.52 -120.41,-164.82l-154.4 -154.32c-39.71,29.4 -84.33,52.51 -132.4,67.94l182.1 181.69c36.66,38.19 69.48,62.07 91.2,118.63 71.16,185.29 -127.86,356.44 -301.46,263.81 -53.15,-28.36 -84.75,-78.51 -111.26,-97.48 -9.22,3.65 -45.77,42.78 -54.16,51.33 -175.77,179.02 -437.45,-5.45 -361.01,-216.09 19.93,-54.92 62.91,-90.51 93.23,-120.62l181.32 -181.15c-48.48,-15.51 -93.46,-38.83 -133.43,-68.53z"/>
   <path class="fil0" d="M7374.72 3464.8l-153.44 -153.8c-45.55,-44.96 -86.06,-90.08 -165.92,-119.42 -173.62,-63.76 -335.9,20.09 -407.74,119.08 -81.8,112.7 -98.21,257.7 -29.48,384.09 8.07,14.84 21.61,32.42 27.25,45.52 -18.98,30.9 -35.48,53.38 -49,92.44 -41.15,118.81 -20.15,242.33 50.68,334.72 95.4,124.44 256.65,175.75 409.46,119.47 78.77,-29.01 119.52,-74.55 164.83,-120.41l154.09 -154.16c-29.53,-39.53 -52.81,-83.99 -68.44,-131.9l-180.96 181.36c-38.18,36.66 -62.07,69.48 -118.63,91.2 -185.28,71.16 -356.43,-127.87 -263.8,-301.46 28.36,-53.15 78.51,-84.75 97.48,-111.26 -3.65,-9.22 -42.78,-45.77 -51.33,-54.16 -179.02,-175.77 5.45,-437.45 216.09,-361.01 54.92,19.93 90.51,62.91 120.61,93.23l179.73 179.89c15.51,-48.47 38.84,-93.46 68.54,-133.43z"/>
   <path class="fil1" d="M7936.16 3450.87c-55.13,-37.13 -121.54,-58.79 -193.01,-58.79 -71.49,0 -137.92,21.68 -193.07,58.83l109.33 107.89c25.43,-11.9 53.8,-18.54 83.73,-18.54 29.91,0 58.26,6.64 83.67,18.52l109.34 -107.9z"/>
   <path class="fil1" d="M7936.16 4025.27c-55.13,37.13 -121.54,58.79 -193.01,58.79 -71.49,0 -137.92,-21.68 -193.07,-58.83l109.33 -107.89c25.43,11.9 53.8,18.55 83.73,18.55 29.91,0 58.26,-6.64 83.67,-18.52l109.34 107.9z"/>
   <path class="fil0" d="M7455.92 3545.03c-37.13,55.13 -58.8,121.54 -58.8,193.01 0,71.49 21.68,137.92 58.83,193.07l107.89 -109.33c-11.9,-25.43 -18.55,-53.8 -18.54,-83.73 0,-29.91 6.63,-58.26 18.51,-83.67l-107.9 -109.34z"/>
   <path class="fil0" d="M8030.33 3545.03c37.13,55.13 58.79,121.54 58.79,193.01 0,71.49 -21.68,137.92 -58.83,193.07l-107.89 -109.33c11.9,-25.43 18.54,-53.8 18.54,-83.73 0,-29.91 -6.63,-58.26 -18.51,-83.67l107.9 -109.34z"/>
  </g>
  <path class="fil11" d="M9818.84 1811.88c8.68,112.74 28.11,180.85 44.17,237.16 27.07,94.94 44.73,156.85 -12.6,339 -26.16,83.12 -39.62,264.29 -39.43,443.11 0.19,174.2 13.34,345.91 40.32,422.2 22.49,63.6 29.3,257.94 20.34,440.96 -7.83,159.96 -27.78,311.75 -59.93,361.02 -0.79,1.21 -1.7,2.52 -2.89,4.23 -8.24,11.86 -30.03,43.22 -29.22,53.45 0.01,0.21 0.1,-0.35 0.39,-0.37l0.86 10.9c-8.01,0.63 -11.64,-3.09 -12.15,-9.67 -1.11,-14.11 22.29,-47.8 31.15,-60.54l2.72 -3.93c31.02,-47.54 50.43,-197.26 58.17,-355.59 8.9,-181.84 2.31,-374.43 -19.74,-436.81 -27.38,-77.44 -40.73,-250.54 -40.92,-425.84 -0.2,-179.81 13.42,-362.26 39.9,-446.36 56.35,-179.04 39.04,-239.71 12.51,-332.76 -16.19,-56.78 -35.78,-125.46 -44.55,-239.34l10.9 -0.81z"/>
  <path class="fil12" d="M9756.36 1771.15c3.15,51.28 -8.49,87.77 -35.4,108.99 -11.59,39.59 47.68,43.35 96.88,47.51 37.45,4.48 49.97,-3.95 25.15,-31.67 -25.49,-36.06 -26.12,-78.04 -6.52,-124.83 346.08,-139.45 573.49,-423.93 649.91,-892.95 15.66,-372.13 -97.6,-674.34 -471.62,-835.12 -204.78,-80.52 -409.55,-46.95 -614.33,90.45 -252.4,181.9 -338.74,470.82 -293.97,844.23 132.95,443.76 356.12,694.22 649.89,793.39zm-350.9 -1543.46c0,0 131.51,-127.27 199.39,-86.97 67.88,40.3 21.21,131.51 -19.09,176.06 -40.3,44.55 -201.51,226.96 -284.24,178.18 -82.73,-48.79 103.93,-267.27 103.93,-267.27zm-210 475.14c0,0 19.09,-76.36 78.48,-70 59.39,6.37 97.58,23.34 72.12,110.3 -25.45,86.97 10.6,415.75 38.18,468.78 27.58,53.03 31.82,118.79 -2.12,125.15 -33.94,6.36 -235.45,-167.57 -186.66,-634.23z"/>
  <polygon class="fil11" points="9748.81,1771.25 9829.91,1787.04 9829.76,1797.78 9779.37,1806.17 9832.17,1815.66 9832.38,1826.35 9740.73,1846.85 9738.38,1836.21 9803.65,1821.61 9746.43,1811.32 9746.52,1800.57 9798.15,1791.98 9746.76,1781.97 "/>
 </g>
</svg>
