<?xml version="1.0" encoding="UTF-8"?>
<!DOCTYPE svg PUBLIC "-//W3C//DTD SVG 1.1//EN" "http://www.w3.org/Graphics/SVG/1.1/DTD/svg11.dtd">
<!-- Creator: CorelDRAW 2021 (64-Bit OEM Version) -->
<svg xmlns="http://www.w3.org/2000/svg" xml:space="preserve" width="2.9712in" height="4.33694in" version="1.1" style="shape-rendering:geometricPrecision; text-rendering:geometricPrecision; image-rendering:optimizeQuality; fill-rule:evenodd; clip-rule:evenodd"
viewBox="0 0 362.47 529.09"
 xmlns:xlink="http://www.w3.org/1999/xlink"
 xmlns:xodm="http://www.corel.com/coreldraw/odm/2003">
 <defs>
  <style type="text/css">
   <![CDATA[
    .fil2 {fill:black}
    .fil3 {fill:#8EDCC4}
    .fil0 {fill:#F2D250}
    .fil6 {fill:#FCDA55}
    .fil1 {fill:black;fill-rule:nonzero}
    .fil5 {fill:#333333;fill-rule:nonzero}
    .fil4 {fill:#F2D250;fill-rule:nonzero}
   ]]>
  </style>
 </defs>
 <g id="Layer_x0020_1">
  <metadata id="CorelCorpID_0Corel-Layer"/>
  <g id="_1916518918080">
   <path class="fil0" d="M225.08 347.79c2.62,0 4.88,1.54 5.93,3.75l0 0 0 0.01c0.12,0.26 0.23,0.54 0.32,0.82l42.17 107.74c0.28,0.5 0.49,1.04 0.63,1.61l0 0 -0 0c0.12,0.5 0.19,1.02 0.19,1.56 0,3.38 -2.55,6.16 -5.84,6.51l0 0 -0 0c-0.23,0.03 -0.47,0.04 -0.71,0.04 -0.24,0 -0.48,-0.01 -0.71,-0.04l-85.55 0.04c-3.62,0 -6.55,-2.93 -6.55,-6.55 0,-1.03 0.24,-2 0.66,-2.87l43.13 -107.75c0.14,-0.53 0.34,-1.03 0.6,-1.49l0 -0 0 0c1.12,-2.02 3.27,-3.39 5.74,-3.39z"/>
   <path class="fil1" d="M223.3 408.26c0,-0.73 0.6,-1.33 1.33,-1.33 0.73,0 1.33,0.6 1.33,1.33l0 119.5c0,0.73 -0.6,1.33 -1.33,1.33 -0.73,0 -1.33,-0.6 -1.33,-1.33l0 -119.5z"/>
   <path class="fil1" d="M244.86 427.22c0.56,-0.47 1.4,-0.4 1.87,0.17 0.47,0.56 0.4,1.4 -0.17,1.87l-20.69 17.27c-0.56,0.47 -1.4,0.4 -1.87,-0.17 -0.47,-0.56 -0.4,-1.4 0.17,-1.87l20.69 -17.27z"/>
   <path class="fil1" d="M206.49 420.52c-0.56,-0.47 -0.64,-1.31 -0.17,-1.87 0.47,-0.56 1.31,-0.64 1.87,-0.17l17.14 14.31c0.56,0.47 0.64,1.31 0.17,1.87 -0.47,0.56 -1.31,0.64 -1.87,0.17l-17.14 -14.31z"/>
   <path class="fil1" d="M206.38 446.57c-0.56,-0.47 -0.64,-1.31 -0.17,-1.87 0.47,-0.56 1.31,-0.64 1.87,-0.17l17.14 14.31c0.56,0.47 0.64,1.31 0.17,1.87 -0.47,0.56 -1.31,0.64 -1.87,0.17l-17.14 -14.31z"/>
  </g>
  <g id="_1916518920240">
   <path class="fil0" d="M74.11 332.3c-49.22,28.12 -30.99,104.22 43.54,100.68 -27.6,44.38 -100.47,32.54 -112.65,-16.87 -12.2,-50.57 23.26,-86.54 69.12,-83.81z"/>
   <ellipse class="fil2" transform="matrix(0.855977 -0.0909129 0.0909129 0.855977 10.9636 400.099)" rx="2.57" ry="3.03"/>
   <ellipse class="fil2" transform="matrix(0.855977 -0.0909129 0.0909129 0.855977 41.1074 397.255)" rx="2.57" ry="3.03"/>
   <path class="fil1" d="M15.38 409.35c-0.35,-0.72 -0.05,-1.59 0.68,-1.94 0.72,-0.35 1.59,-0.05 1.94,0.68 0.01,0.02 3.7,7.83 10.94,6.69 7.16,-1.12 7.67,-9.37 7.67,-9.39 0.06,-0.8 0.76,-1.4 1.56,-1.34 0.8,0.06 1.4,0.76 1.34,1.56 -0,0.03 -0.65,10.56 -10.13,12.05 -9.39,1.47 -13.99,-8.28 -14,-8.3z"/>
  </g>
  <g id="_1916518919328">
   <path class="fil3" d="M144 333.16c33.26,13.86 36.05,8.24 6.77,27.78 -2.89,36.39 3.24,37.31 -24.02,15.23 -35.05,8.63 -34.05,14.82 -21.61,-18.36 -18.77,-31.05 -24.28,-28.15 10.66,-26.58 23.45,-27.82 19.04,-32.21 28.2,1.94z"/>
   <ellipse class="fil2" transform="matrix(0.712906 0.130006 -0.130006 0.712906 114.715 342.877)" rx="2.57" ry="3.03"/>
   <ellipse class="fil2" transform="matrix(0.712906 0.130006 -0.130006 0.712906 139.736 347.744)" rx="2.57" ry="3.03"/>
   <path class="fil1" d="M116.08 351.4c-0.11,-0.67 0.34,-1.3 1.01,-1.41 0.67,-0.11 1.3,0.34 1.41,1.01 0,0.02 1.13,7.2 7.25,8.01 6.05,0.79 8.42,-5.74 8.43,-5.76 0.24,-0.63 0.95,-0.95 1.58,-0.71 0.63,0.24 0.95,0.95 0.71,1.58 -0.01,0.02 -3.04,8.37 -11.04,7.32 -7.93,-1.04 -9.33,-10.01 -9.33,-10.03z"/>
  </g>
  <g id="_1916518864080">
   <circle class="fil0" cx="262.13" cy="248.88" r="52.13"/>
   <g>
    <path class="fil4" d="M258.16 315.9c0,-2.19 1.78,-3.97 3.97,-3.97 2.19,0 3.97,1.78 3.97,3.97l0 29.35c0,2.19 -1.78,3.97 -3.97,3.97 -2.19,0 -3.97,-1.78 -3.97,-3.97l0 -29.35z"/>
    <path class="fil4" d="M258.16 152.5c0,-2.19 1.78,-3.97 3.97,-3.97 2.19,0 3.97,1.78 3.97,3.97l0 29.35c0,2.19 -1.78,3.97 -3.97,3.97 -2.19,0 -3.97,-1.78 -3.97,-3.97l0 -29.35z"/>
   </g>
   <g>
    <path class="fil4" d="M329.15 252.85c-2.19,0 -3.97,-1.78 -3.97,-3.97 0,-2.19 1.78,-3.97 3.97,-3.97l29.35 0c2.19,0 3.97,1.78 3.97,3.97 0,2.19 -1.78,3.97 -3.97,3.97l-29.35 0z"/>
    <path class="fil4" d="M165.75 252.85c-2.19,0 -3.97,-1.78 -3.97,-3.97 0,-2.19 1.78,-3.97 3.97,-3.97l29.35 0c2.19,0 3.97,1.78 3.97,3.97 0,2.19 -1.78,3.97 -3.97,3.97l-29.35 0z"/>
   </g>
   <g>
    <path class="fil4" d="M306.71 299.08c-1.55,-1.55 -1.55,-4.06 0,-5.61 1.55,-1.55 4.06,-1.55 5.62,0l20.75 20.75c1.55,1.55 1.55,4.06 0,5.62 -1.55,1.55 -4.06,1.55 -5.61,0l-20.75 -20.75z"/>
    <path class="fil4" d="M191.17 183.54c-1.55,-1.55 -1.55,-4.06 0,-5.62 1.55,-1.55 4.06,-1.55 5.61,0l20.75 20.75c1.55,1.55 1.55,4.06 0,5.62 -1.55,1.55 -4.06,1.55 -5.62,0l-20.75 -20.75z"/>
   </g>
   <g>
    <path class="fil4" d="M211.93 293.46c1.55,-1.55 4.06,-1.55 5.62,0 1.55,1.55 1.55,4.06 0,5.61l-20.75 20.75c-1.55,1.55 -4.06,1.55 -5.61,0 -1.55,-1.55 -1.55,-4.06 0,-5.62l20.75 -20.75z"/>
    <path class="fil4" d="M327.47 177.92c1.55,-1.55 4.06,-1.55 5.61,0 1.55,1.55 1.55,4.06 0,5.62l-20.75 20.75c-1.55,1.55 -4.07,1.55 -5.62,0 -1.55,-1.55 -1.55,-4.07 0,-5.62l20.75 -20.75z"/>
   </g>
   <g>
    <ellipse class="fil2" transform="matrix(1.58406 -0.268265 0.268265 1.58406 233.237 247.001)" rx="2.57" ry="3.03"/>
    <ellipse class="fil2" transform="matrix(1.58406 -0.268265 0.268265 1.58406 289.062 238.22)" rx="2.57" ry="3.03"/>
    <path class="fil1" d="M242.53 263.73c-0.73,-1.3 -0.27,-2.96 1.04,-3.69 1.3,-0.73 2.96,-0.27 3.69,1.04 0.02,0.04 7.8,14.16 21.16,11.2 13.2,-2.92 13.21,-18.34 13.21,-18.38 0.02,-1.5 1.25,-2.7 2.75,-2.68 1.5,0.02 2.7,1.25 2.68,2.75 -0,0.06 0,19.75 -17.48,23.61 -17.31,3.83 -27.02,-13.8 -27.04,-13.85z"/>
   </g>
  </g>
  <g id="_1916518862256">
   <path class="fil5" d="M87.13 218.16c1.05,13.57 3.38,21.78 5.32,28.56 3.26,11.43 5.39,18.89 -1.52,40.82 -3.15,10.01 -4.77,31.82 -4.75,53.35 0.02,20.97 1.61,41.65 4.85,50.84 2.71,7.66 3.53,31.06 2.45,53.09 -0.94,19.26 -3.34,37.54 -7.22,43.47 -0.1,0.15 -0.2,0.3 -0.35,0.51 -0.99,1.43 -3.62,5.2 -3.52,6.44 0,0.02 0.01,-0.04 0.05,-0.04l0.1 1.31c-0.96,0.08 -1.4,-0.37 -1.46,-1.16 -0.13,-1.7 2.68,-5.75 3.75,-7.29l0.33 -0.47c3.73,-5.72 6.07,-23.75 7,-42.81 1.07,-21.89 0.28,-45.08 -2.38,-52.59 -3.3,-9.32 -4.9,-30.17 -4.93,-51.27 -0.02,-21.65 1.62,-43.62 4.8,-53.74 6.78,-21.56 4.7,-28.86 1.51,-40.07 -1.95,-6.84 -4.31,-15.11 -5.36,-28.82l1.31 -0.1z"/>
   <path class="fil6" d="M79.61 213.25c0.38,6.17 -1.02,10.57 -4.26,13.12 -1.4,4.77 5.74,5.22 11.66,5.72 4.51,0.54 6.02,-0.48 3.03,-3.81 -3.07,-4.34 -3.14,-9.4 -0.79,-15.03 41.67,-16.79 69.05,-51.04 78.25,-107.52 1.89,-44.81 -11.75,-81.19 -56.78,-100.55 -24.66,-9.69 -49.31,-5.65 -73.97,10.89 -30.39,21.9 -40.79,56.69 -35.4,101.65 16.01,53.43 42.88,83.59 78.25,95.53zm-42.25 -185.84c0,0 15.83,-15.32 24.01,-10.47 8.17,4.85 2.55,15.83 -2.3,21.2 -4.85,5.36 -24.26,27.33 -34.22,21.45 -9.96,-5.87 12.51,-32.18 12.51,-32.18zm-25.28 57.21c0,0 2.3,-9.19 9.45,-8.43 7.15,0.77 11.75,2.81 8.68,13.28 -3.06,10.47 1.28,50.06 4.6,56.44 3.32,6.39 3.83,14.3 -0.26,15.07 -4.09,0.77 -28.35,-20.18 -22.48,-76.36z"/>
   <polygon class="fil5" points="78.7,213.27 88.47,215.17 88.45,216.46 82.38,217.47 88.74,218.61 88.76,219.9 77.73,222.37 77.44,221.09 85.3,219.33 78.41,218.09 78.42,216.8 84.64,215.76 78.45,214.56 "/>
  </g>
 </g>
</svg>
